<?xml version="1.0" standalone="no"?>
<!DOCTYPE svg PUBLIC "-//W3C//DTD SVG 1.1//EN" "http://www.w3.org/Graphics/SVG/1.1/DTD/svg11.dtd" >
<svg xmlns="http://www.w3.org/2000/svg">
<metadata>
This is a custom SVG webfont generated by Font Squirrel.
Copyright   :  2005 Nate Piekos wwwblambotcom
</metadata>
<defs>
<font id="webfontlTOOs2da" horiz-adv-x="1112" >
<font-face units-per-em="2048" ascent="1638" descent="-410" />
<missing-glyph horiz-adv-x="560" />
<glyph unicode=" "  horiz-adv-x="560" />
<glyph unicode="&#x09;" horiz-adv-x="560" />
<glyph unicode="&#xa0;" horiz-adv-x="560" />
<glyph unicode="!" horiz-adv-x="492" d="M742 1368q-136 -368 -190 -624q-4 -20 -18 -56t-14 -40q-14 -68 -16 -132q-20 -6 -58 -14q-26 20 -46 44q-14 -10 -39 -33t-39 -33l-24 14q-26 -12 -42 -18q22 518 96 870l76 18l4 -88l32 54l6 46l62 16q4 -14 14 -42q58 44 154 64l-12 -54zM498 328l-2 -60l-10 2 l-102 -56l60 -2l52 20h2l-2 -32l-44 -48l44 -34l-2 -54l-400 -84l4 58h26l40 14l10 -2l24 20l-42 10l-56 -30l18 208zM500 1260l-6 22l-28 -34l2 -66l20 36l6 32zM522 1134l-8 18l-24 -28l4 -56l18 30l4 28zM236 146l-34 6l-52 -28l30 -2l28 10h10z" />
<glyph unicode="&#x22;" horiz-adv-x="966" d="M1192 1506l-166 -510l-162 -6l14 20l-14 72l-20 -44v-38l-4 -10l-52 -2l54 508l102 6l30 -40l52 36l46 -2v-44l-8 -18l14 -30l38 60l-6 30zM758 1488l-170 -518l-42 2l2 2l-10 66l-18 -38l-2 -22l-24 12l-48 -8l2 6l-16 90l-24 -54v-46l-64 -10l96 558l82 -20l28 -42 l66 36h18v-34l-6 -10l10 -22l26 40l-4 22zM1038 1386l-12 52l-12 -30v-28l-6 -10l8 -16zM602 1428l-8 48l-12 -28v-24l-4 -8l6 -16z" />
<glyph unicode="#" horiz-adv-x="1198" d="M1356 1072q-2 -20 -4 -58q-16 -6 -46 -16q28 -20 44 -30q-6 -10 -22 -54q-80 -18 -158 -42q-14 -58 -38 -174q46 16 140 52q-2 -10 -6 -35t-4 -39l-54 -36q48 -12 76 -14q-8 -10 -4 -47t-2 -45q8 -10 38 -34q-60 -22 -234 -76q-22 -120 -32 -236l-92 -54q2 24 6 46 q-14 -12 -46 -34v26l10 12l-10 24l-32 -42l4 -40l-42 -32q0 54 4 160q-44 -98 -72 -170h-14l20 248q-16 -8 -250 -76v-6q-10 -16 -20 -54t-30 -186q-38 -12 -58 -20q-18 24 -42 66l-82 -98l-24 22q-4 -2 -44 -28q4 54 22 228l-28 -6l-20 20q-10 -2 -16 -2t-15 7t-23 5 q0 14 -11 50t-9 50q-2 12 0 44q16 4 44 12q-14 8 -42 22q4 14 18 40q44 10 134 26q2 28 8 82l-108 -54q0 36 14 98q18 18 54 50l-72 18q8 14 6 58t6 64q-10 16 -34 46l190 84q28 168 66 346q52 20 78 28l-2 -2l6 -100l34 56l4 52l12 16l52 18q6 -20 14 -60l68 66q22 6 92 28 q-14 -40 -22 -80l58 12q-40 -114 -70 -224q40 18 120 50q8 62 42 258q14 4 24 4t26 -4t24 -4q30 0 80 46t72 46h6l-30 -36l6 -100l34 56l6 52l10 14v6q12 -8 24 -8q26 0 68 42q50 48 68 56l-68 -286l12 4l22 -28q10 2 14 2q8 0 14 -8t26 -4q-2 -10 -2 -22q0 -16 8 -54t6 -60 zM562 1138l-8 18l-26 -32l8 -58l18 34l2 28zM822 760q-52 -16 -184 -76q-16 -54 -42 -162q70 22 210 62q2 58 16 176zM956 384l-24 -8l4 -42l18 32zM1012 314l-8 24l-34 -42l10 -74l22 42l4 38z" />
<glyph unicode="$" horiz-adv-x="892" d="M1110 1200q-448 -240 -482 -398q-12 -52 63 -94l147 -82q84 -62 84 -160q0 -68 -32 -134l120 -186l-30 -38v14l-24 30v14l-26 14l-4 -54l42 -36l-34 -42l-36 40l-24 -66l-66 -48l-78 144q-96 -98 -276 -224q-10 6 -6 18q2 8 12 26t12 26q2 12 -62 12q-24 0 -38 -4l102 86 l-70 -18l-58 -40l-18 -4l-14 -16l-44 20q286 178 306 272q12 60 -99 119l-221 117q-122 82 -122 192q0 186 266 430l-142 202l58 54l-4 -36l60 -52l-6 46l-24 32l2 14l-16 6l26 24l66 -54l-4 78l172 100l46 -230q202 140 394 220q2 -18 20 -46q22 -40 24 -46l-28 -6l-56 -40 l-16 -2l-34 -44l56 -4l80 78q0 -12 -36 -80l54 -50h-2l-40 -28l-14 -2l-26 -30l42 -4l48 44l8 -12zM968 1298l-36 -8l-36 -26h-10l-22 -28l36 -4zM452 1252l-4 36l-18 24v12l-20 10l-2 -40zM892 146l-6 36l-16 24l-2 10l-20 10l-2 -40zM616 116q-18 -4 -53 -24t-43 -20 l-24 -26l46 6z" />
<glyph unicode="%" horiz-adv-x="1320" d="M1562 1412l-402 -462l40 20h22l16 16q210 -52 210 -296q0 -172 -98 -348q-94 -168 -240 -276l-54 6l-118 -78l58 4q-108 -52 -206 -52q-208 0 -262 204l-126 -172h-50q-36 -2 -50 -2l30 44l-40 -6l20 12l34 46l16 8l10 38l-64 -28l-42 -80q-24 -4 -74 -10q64 108 102 166 l-160 -138l-10 8l320 476q-126 0 -192 86q-58 76 -58 202q0 200 131 381t323 225l-102 -76l74 8l60 34l22 2l34 38l-32 2h18q174 6 236 -164l182 236q20 -4 40 -32t50 -28q6 0 90 20l-26 -10l-68 -130l74 46l42 60l24 12l2 16l21 -38q11 -20 35 -20q20 0 63 16t65 16z M1186 1324l-48 -22l-40 -76l44 28l24 34l12 8zM1108 1144l-50 -22l-40 -76l42 28l26 34l14 6zM1244 928l-46 4l-72 -48l46 4l38 18h12zM764 1340l-46 2l-68 -50l44 4l36 20l12 2zM644 1246l-26 2l-38 -28l24 2l20 12h8zM664 914q0 70 -52 70q-60 0 -112 -63t-52 -125 q0 -68 54 -68q60 0 111 62t51 124zM1108 416q6 26 6 50q0 102 -82 102q-80 0 -158 -79t-94 -163q-6 -24 -6 -48q0 -100 82 -100t160 80q74 74 92 158zM1036 140l-24 4l-40 -28l24 2l20 10h8zM984 74l-44 4l-70 -48l42 4l38 18h12zM462 266l-50 -22l-40 -76l42 28l28 34l12 8 z" />
<glyph unicode="&#x26;" horiz-adv-x="1050" d="M1236 828l-34 -162q-48 -6 -130 -24q-60 -150 -130 -476l-16 -28q-10 -72 -14 -130q-22 -8 -60 -20l-22 14l6 48l10 16l-12 34l-44 -56l4 -32q-36 -30 -68 -62l-26 10l-42 -24q2 60 4 110q-130 -48 -242 -48q-150 0 -231 84t-81 222q0 110 42 194q62 128 224 218 q-138 76 -138 228q0 32 6 66q38 172 204 278q150 96 328 96q132 0 270 -50l-22 -62l-8 12l-76 6l28 -26l36 -10l6 -8h2l-10 -28q-52 -20 -86 -30q24 -30 36 -48l-2 -40q-8 -2 -74 -16q24 -34 34 -54v-24q-88 16 -150 16q-56 0 -108 -16q-70 -22 -80 -64q-16 -78 152 -78 q86 0 234 36q170 38 236 44l4 -22l22 2l8 -52l-44 2l-98 -72l62 8l52 28h18l12 16zM906 1234l-14 24l-48 2l18 -16l22 -6l6 -6zM1124 764l-30 2l-46 -34l30 4l24 14h8zM842 240l-12 12l-14 -28l18 -44l8 28l-4 24zM710 570q-106 -24 -182 -72q-108 -66 -108 -150 q0 -46 36 -73t86 -27q64 0 134 38q10 94 34 284zM796 160l-10 26l-32 -44l4 -80l26 44l2 42z" />
<glyph unicode="'" horiz-adv-x="552" d="M774 1412l-286 -488l-38 12l2 2l6 70l-26 -36l-6 -20l-18 16l-48 4l4 6l8 96l-34 -50l-12 -46l-64 4l232 548l70 -40l14 -50l70 20l16 -4l-8 -34l-8 -10l4 -24l32 34l2 24zM622 1440l-20 -26l-6 -24l-6 -8l4 -18l22 24z" />
<glyph unicode="(" horiz-adv-x="700" d="M1130 1416q-224 -200 -382 -422q-188 -262 -238 -492q-16 -74 -16 -142q0 -294 280 -464l-44 -34l-44 -6l-12 22l-32 20l-6 12l-28 2l12 -44l40 -16l-36 -78l-52 -42q-396 210 -396 656q0 104 24 214q62 288 260 562q196 266 468 444l56 -54l-46 -18l-58 -100l56 34 l36 46l16 8l4 14l24 -86l60 16zM940 1424l-34 -14l-34 -56l32 18l20 26l8 4zM520 -34l-4 22q-16 10 -16 18l-14 4l4 -22zM554 -146l-6 30l-20 18v10l-22 6l2 -36z" />
<glyph unicode=")" horiz-adv-x="708" d="M782 600q-62 -292 -257 -517t-487 -351l-34 42l-4 78l48 16l34 44l-32 -2l-10 -12l-40 -20l-22 -22l-44 6l-26 34q434 210 518 604q20 88 20 182q0 370 -252 734l78 52l52 -16l60 86v-14l12 -8l18 -46l42 -34l-16 100l-38 18l78 54q154 -142 240 -343t86 -427 q0 -120 -24 -238zM428 1354l-8 56l-30 14l-2 -22l8 -4l10 -26zM242 10l-14 -4l-4 -6l-20 -12l-16 -22l44 22zM182 -82l-20 -6l-6 -10l-26 -18l-24 -30l58 28z" />
<glyph unicode="*" horiz-adv-x="732" d="M932 1166l-172 -92l106 -66l-90 -136l-120 56l-22 -118l-24 -2l-32 28l-38 -36l-58 -6l12 140l-144 -76l-22 44l30 2l40 20h14l24 24l-52 6l-60 -42l-34 66l114 72l-100 48l26 54l44 20l-10 50l38 78l118 -74l10 130l38 10l28 -26l42 44l108 28l-30 -162l102 66l60 -80 l-8 2l-68 -48l44 2l36 18h12l2 2zM780 1206l-34 4l-54 -38l34 4l28 14h10z" />
<glyph unicode="+" horiz-adv-x="754" d="M894 872l-14 -88l-78 -72l38 -32v-8l-100 -56l58 -4l44 16l-2 -62l-192 -30l-24 -194l-38 -8l-52 80l-52 -98l-70 -8l-8 48l-38 -44l-30 8l18 174l-178 -28l-6 36l90 74l-76 22l44 18l18 -2l32 28l-56 14l-52 -28l2 42l50 20l-40 26l12 32l184 32l20 220l88 2l56 -70 l44 46l120 16l-20 -158zM800 774l-40 12l-76 -42l44 -2l36 14h12zM390 626l-32 8l-54 -30l32 -2l26 12l10 -2z" />
<glyph unicode="," horiz-adv-x="552" d="M548 238l-286 -488l-38 12l2 2l8 70l-26 -36l-6 -20l-20 16l-46 4l2 6l10 96l-36 -50l-12 -46l-62 4l230 548l70 -40l14 -50l70 20l18 -4l-10 -34l-8 -10l4 -24l34 34l2 24zM396 266l-20 -26l-6 -24l-4 -8l2 -16l22 24z" />
<glyph unicode="-" horiz-adv-x="758" d="M886 872l-14 -88l-78 -72l38 -32v-8l-102 -56l60 -4l42 16l-2 -62l-666 -100l-4 36l92 74l-80 22l48 18l16 -2l34 28l-58 14l-52 -28v42l50 20l-40 26l12 32zM792 774l-42 12l-76 -42l44 -2l38 14h12zM380 626l-32 8l-54 -30l32 -2l28 12l8 -2z" />
<glyph unicode="." horiz-adv-x="552" d="M508 328l-2 -46h-4l-74 -40l44 -2l22 8l-12 -30l8 -50h-6l-102 -56l60 -2l52 20l10 -66l-402 -84l4 52l50 48l-40 56l2 20l36 14l12 -2l24 20l-44 10l-24 -14l4 74zM230 146l-32 6l-54 -28l32 -2l26 10h10z" />
<glyph unicode="/" horiz-adv-x="942" d="M1386 1412l-548 -630q-214 -254 -612 -804h-50q-36 -2 -52 -2l30 44l-40 -6l22 12l34 46l16 8l10 38l-64 -28l-42 -80l-76 -10l104 166l-160 -138l-12 8l494 734q286 416 524 716q18 -4 38 -32t50 -28q12 0 92 20l-26 -10l-68 -130l72 46l44 60l22 12l4 16l21 -38 q11 -20 33 -20t65 16t63 16zM1010 1324l-50 -22l-40 -76l42 28l28 34l12 8zM930 1144l-50 -22l-40 -76l44 28l26 34l12 6zM284 266l-48 -22l-40 -76l42 28l24 34l14 8z" />
<glyph unicode="0" d="M1384 884q-70 -324 -384 -626q-328 -316 -644 -316q-122 0 -216 58l-6 58l-84 46l12 -36q-78 98 -78 254q0 236 164 496q158 250 398 416q252 174 486 174q144 0 236 -76l24 -88l-26 2l-6 50l-80 48l16 -54l32 -32l4 -10l-24 2l-18 -82l-16 -8l-4 30l-84 46l18 -52 l34 -32v-6l-52 -24l-64 -74l84 50l96 6l4 -12l24 -20l2 -10l22 -6l-4 42l-28 14v30l50 12l-12 38l90 -38l26 22q22 -72 22 -156q0 -66 -14 -136zM1058 1136l-2 40l-56 30l10 -34l24 -22l2 -10zM1180 990l-4 30l-40 22l10 -26l16 -14v-8zM1048 806q0 92 -50 149t-146 57 q-192 0 -379 -198t-187 -392q0 -90 51 -147t147 -57q192 0 378 197t186 391zM268 204l-2 36l-48 26l10 -30l20 -18l2 -10zM258 64l-2 36l-48 26l10 -30l20 -18l2 -8zM178 110l-6 62l-84 46l16 -54l36 -30l2 -16z" />
<glyph unicode="1" horiz-adv-x="760" d="M918 1290q-10 -24 -22 -66l-42 6l-96 -68l62 4l52 26h14q-132 -398 -222 -816q-6 -28 -18 -66l216 46q-14 -28 -24 -52l58 6l-12 -38l-34 10l-90 -52l58 -6l48 18l10 -2l-12 -32l-28 -6q6 -12 18 -34q-10 -16 -24 -42q-110 -12 -142 -16q-82 -14 -142 -36l-2 2 q-134 -32 -444 -154l28 80l44 34l-38 26q10 16 26 38q-6 26 -12 44l224 82q44 454 94 726l-262 -120q10 46 38 102l50 46q-24 12 -44 28q10 48 42 128q-10 26 -16 52q126 54 540 212l6 -66l60 20q-12 -40 -20 -78q36 8 58 14zM784 1236l-44 6l-68 -46l44 2l36 18h12z M652 1142l-26 4l-42 -30l26 2l22 10h8zM688 188l-36 10l-54 -32l34 -2l28 10l12 -2z" />
<glyph unicode="2" horiz-adv-x="786" d="M1004 1000q-24 -118 -142 -254q-64 -74 -240 -234q-160 -144 -220 -224q122 32 366 88q-10 -16 -24 -50q22 0 56 4q-20 -56 -30 -102l-28 -6l16 -34l-22 -42q-296 -34 -730 -204l28 80l42 34q-12 8 -36 26l8 12l20 -2l48 18l16 -4l28 26l-60 18l-36 -22l-4 20l-8 2 q16 154 156 312l262 250q146 140 168 248q12 56 -66 56q-72 0 -240 -88q-14 20 -15 71t-13 71l60 68q-14 0 -44 -2h-44l-2 4h6l50 26h18l28 30l-62 8l-50 -34l-10 34l22 34q262 134 438 134q140 0 221 -75t81 -201q0 -46 -12 -96zM568 1244l-26 4l-42 -28l26 2l22 10h8z M512 1170l-44 6l-68 -48l42 2l36 18h14zM250 94l-36 10l-52 -30l32 -4l32 10l8 -2z" />
<glyph unicode="3" horiz-adv-x="798" d="M974 1162q8 -206 -210 -372q176 -58 176 -206q0 -32 -8 -68q-44 -210 -226 -365t-390 -155q-186 0 -258 192l64 86l10 -12l38 -16l8 -14l34 4l-20 56l-50 8l46 60q92 -124 198 -124q66 0 138 40q80 46 94 110q2 14 2 28q0 124 -198 124q-64 0 -152 -14l6 124l50 28h18 l28 32l-62 4l-30 -22l40 100l22 4l10 24q78 18 150 50q108 46 118 96q10 46 -68 46q-98 0 -262 -78l6 26q32 42 50 68l-72 -6l10 40q6 12 46 64l-52 2l42 24l18 2l30 30l-64 4l-52 -42l-16 92q266 164 440 164q198 0 268 -120l-16 -50zM484 1178l-44 4l-70 -52l44 6l38 20 h12zM534 706l-18 16l-46 -10l20 -10h24l4 -4zM460 660l-42 12l-74 -38l42 -4l38 12l12 -2zM180 158l-12 34l-54 8l16 -26l24 -10l6 -8z" />
<glyph unicode="4" horiz-adv-x="874" d="M1102 1344l-114 -356q-62 -206 -94 -358q32 4 94 16l-28 -52q12 0 66 6q-12 -34 -32 -102q-20 -6 -32 -6q6 -12 20 -34q-8 -14 -26 -42q-38 -4 -114 -14l-12 -60q-16 -44 -40 -130q-10 -52 -28 -180q-30 -14 -56 -22l-14 24l20 34l8 52l10 16l-8 34l-46 -54v-58l-10 22 l-86 -102l-24 22q-28 -20 -44 -28q12 142 42 376q-48 -4 -432 -138l32 82q10 8 30 22q-6 14 -8 26l-20 12q12 14 30 42l-6 16q-32 -4 -48 -8l-12 30l36 48l16 10l10 38l-62 -32l-14 -30q-14 26 -22 46q-8 6 -42 26q66 98 290 384q98 128 308 374q6 -20 12 -60l50 44l6 28 q44 16 92 36l-14 -16v-104l34 56l10 52l10 14l-4 12l58 22q0 -2 10 -64q30 32 70 68q10 2 90 30q-6 -28 -20 -84q14 2 58 14zM870 1222l-6 26l-34 -40l4 -74q10 36 36 88zM616 822q-122 -136 -252 -326q114 38 216 64q10 88 36 262zM726 292l-6 20l-24 -30v-58l18 30l4 30z M664 202l-6 26l-32 -40v-74l24 40l6 38zM246 652l-46 -22l-38 -72l40 26l24 34l12 6z" />
<glyph unicode="5" horiz-adv-x="820" d="M1138 1418q-8 -18 -16 -84h-26l-76 -54l50 6l38 22h8l-2 -8q-8 -30 -22 -90l-36 -6q12 -26 22 -40q-4 -4 -30 -54q-274 -28 -544 -122l-28 -122l-12 -56q66 8 122 8q158 0 256 -56q114 -66 114 -198q0 -34 -8 -72q-42 -192 -232 -344t-384 -152q-186 0 -258 192l28 36 l38 -16l8 -14l34 6l-18 54l-34 6l76 100q92 -124 198 -124q66 0 136 40q80 46 94 108q4 16 4 30q0 66 -68 98q-54 26 -132 26q-62 0 -152 -14l4 60q-20 -24 -60 -68l-24 20l-44 -26q14 180 36 360l-38 -16q28 58 36 100l14 12q2 32 6 52l-14 10l12 32l22 2l46 26h14l26 28 l-56 2l-46 -34q6 24 24 72q-4 16 -12 54q108 42 428 142q164 52 218 66q122 36 218 54q-18 -36 -28 -62q44 4 70 8zM1030 1242h-28l-42 -30l26 4l24 12h8zM282 188l-10 34l-56 8l18 -26l24 -10l4 -8z" />
<glyph unicode="6" horiz-adv-x="858" d="M1092 1182q-300 -162 -306 -164q-176 -104 -280 -210q60 6 114 6q212 0 324 -98l-66 18l24 -40l38 -18l6 -14h34l-6 18q44 -66 44 -152q0 -36 -8 -74q-42 -202 -234 -342q-182 -134 -386 -134q-352 0 -352 342q0 72 18 156q68 320 293 523t551 405l26 2l40 -34l-36 -6 l-72 -76l54 18l40 32l14 4l12 18l40 -36l-104 -82h66l-10 -44l84 44zM876 1250h-28l-38 -34l26 6l22 14h8zM926 634l-12 30l-52 14l14 -24l24 -12l4 -8h22zM816 656l-8 22l-42 12l12 -20l18 -8l4 -6h16zM704 390q0 62 -56 99t-124 37q-162 0 -190 -128q-4 -22 -4 -44 q0 -62 37 -102t103 -40q80 0 152 48q82 52 82 130z" />
<glyph unicode="7" horiz-adv-x="706" d="M1078 1286q-266 -460 -454 -856q-22 -60 -80 -172q-42 -68 -106 -236q-40 -16 -64 -22q-14 28 -20 50l14 16l14 42l12 10l-2 28l-42 -36l-10 -50q-34 -30 -98 -92l-18 22l-52 -28q244 692 408 1076l-272 -94l-224 -90q28 58 36 100q28 20 52 42q-16 10 -46 32l16 44l24 4 l50 28h18l30 32l-64 4l-50 -38l2 10q6 28 16 44q-4 16 -12 54q106 42 428 142q164 52 218 66q122 36 218 54q-18 -34 -28 -62q42 4 70 8q-2 -6 -14 -60l-20 2l-98 -74l64 8l48 28l-8 -46zM916 1342l-36 2l-56 -42q14 0 40 11t36 11zM358 1102l-50 2l-74 -56l48 6l40 22h12z M476 302v18l-28 -24l-6 -50l20 24l8 26zM376 216l-2 22l-32 -28l-12 -66l28 32l10 32z" />
<glyph unicode="8" horiz-adv-x="962" d="M1168 1092q-40 -184 -248 -320q106 -42 156 -124l-86 24l36 -54l52 -28l10 -16h20q16 -64 0 -138q-46 -216 -278 -356q-208 -124 -432 -124q-58 0 -110 10l-20 48l-118 32l28 -44q-162 82 -162 242q0 32 8 68q26 120 126 234q92 104 218 168q-128 74 -128 208q0 34 8 70 q40 186 234 312q176 114 368 114q174 0 266 -102l-104 28l36 -54l52 -28l8 -16l48 -2l-12 32q44 -86 24 -184zM1102 1170l-16 40l-68 20l20 -32l32 -16l4 -10zM978 1202l-10 22l-40 10l12 -18l18 -8l4 -6h16zM840 1004q18 82 -88 82q-60 0 -116 -32q-64 -36 -64 -94 q0 -64 90 -64q52 0 106 26q62 32 72 82zM1062 524l-14 40l-72 20l22 -34l32 -16l4 -10h28zM780 344q2 14 2 26q0 100 -138 100q-82 0 -162 -40q-96 -48 -112 -124q-4 -14 -4 -26q0 -102 140 -102q82 0 162 40q96 50 112 126zM316 82l-8 22l-40 10l12 -18l18 -8l4 -6h14z M238 70l-14 42l-72 18l22 -32l32 -16l4 -10z" />
<glyph unicode="9" horiz-adv-x="862" d="M1106 904q-68 -320 -312 -548q-252 -238 -532 -376h-28l-38 42l24 20l12 2l14 22l-40 -6l-18 -20l-20 42l16 6l40 32l16 4l20 32l-58 -10l-42 -46l-32 56q324 174 508 400q-60 -6 -112 -6q-168 0 -272 70q-116 78 -116 222q0 40 8 82q44 206 240 348q186 134 396 134 q142 0 238 -80l-84 24l36 -56l54 -26l10 -18h46l-4 10q48 -82 48 -196q0 -72 -18 -160zM956 1226l-16 40l-68 20l20 -32l32 -16l4 -10zM1000 1166l-10 22l-40 12l12 -20l18 -8l4 -6h16zM800 878q4 20 4 40q0 58 -36 95t-96 37q-66 0 -134 -50t-68 -112q0 -56 56 -92 q48 -30 108 -30q142 0 166 112zM390 200l-34 -6l-48 -48l36 10l24 22l10 2z" />
<glyph unicode=":" horiz-adv-x="552" d="M584 788l-4 -190l-20 6l-74 -42l44 -2l38 14h12v-50l-402 -84l6 60l44 44l-36 38l4 46l44 16h18l32 26l-58 14l-32 -18l4 52zM508 328l-2 -46h-4l-74 -40l44 -2l22 8l-12 -30l8 -50h-6l-102 -56l60 -2l52 20l10 -66l-402 -84l4 52l50 48l-40 56l2 20l36 14l12 -2l24 20 l-44 10l-24 -14l4 74zM340 628l-32 8l-54 -30l30 -2l28 12l10 -2zM230 146l-32 6l-54 -28l32 -2l26 10h10z" />
<glyph unicode=";" horiz-adv-x="552" d="M584 788l-4 -190l-20 6l-74 -42l44 -2l38 14h12v-50l-402 -84l6 60l44 44l-36 38l4 46l44 16h18l32 26l-58 14l-32 -18l4 52zM508 238l-286 -488l-38 12l2 2l8 70l-26 -36l-6 -20l-20 16l-46 4l2 6l10 96l-36 -50l-12 -46l-62 4l230 548l70 -40l14 -50l70 20l18 -4 l-10 -34l-8 -10l4 -24l34 34l2 24zM340 628l-32 8l-54 -30l30 -2l28 12l10 -2zM356 266l-20 -26l-6 -24l-4 -8l2 -16l22 24z" />
<glyph unicode="&#x3c;" horiz-adv-x="714" d="M1142 1400l-726 -744l414 -672l-64 -52l-8 34l-90 44l22 -52l38 -30l6 -14l-66 -20l-12 -48l-58 -46l-546 746l80 120l38 -38q-12 54 2 98l-64 -14l4 46l752 832l62 -28l8 -24l-10 -6l-60 -104l58 36l32 44l40 -6l-2 -42l74 14zM956 1382l-44 -18l-40 -70l38 24l24 32 l12 6zM806 1298l-34 -14l-30 -54l30 20l18 24l10 4zM634 -48l-8 42l-62 28l16 -34l26 -20l4 -10z" />
<glyph unicode="=" horiz-adv-x="726" d="M880 1056l-14 -88l-80 -74l42 -30v-8l-102 -56l60 -4l40 16v-62l-668 -100l-2 36l90 74l-80 22l50 18l16 -2l34 28l-60 14l-50 -28l2 42l48 20l-38 26l12 32zM840 644l-12 -90l-52 -46l-20 4l-102 -56l60 -2l48 16l26 -20v-114l-668 -100l-4 38l92 72l-92 26l-2 12h26 l52 20l18 -2l30 26l-58 14l-66 -36l2 34l50 20l-40 26l12 32zM788 958l-44 10l-74 -40l42 -2l40 14h12zM374 810l-30 8l-54 -30l32 -2l28 12l8 -2zM680 420l-44 10l-74 -40l42 -2l40 14l12 -2zM350 486l-32 8l-54 -30l30 -2l28 10h10z" />
<glyph unicode="&#x3e;" horiz-adv-x="774" d="M970 758l-14 -46l-62 14q0 -40 -40 -98l54 38l30 -120l-864 -746l-38 46l10 48l-58 20l10 14l52 30l42 52l-110 -44l-20 -34l-42 52l700 672l-408 744l106 74l66 -14l20 42l38 6l16 -44l44 -36l-16 104l-12 6l20 24l76 28zM538 1230l-10 54l-26 14l-2 -20l6 -4l10 -24z M436 1294l-10 70l-38 18l-2 -26l8 -6l12 -32zM200 22l-74 -28l-24 -42l28 6l8 10l34 20z" />
<glyph unicode="?" horiz-adv-x="810" d="M1026 1092q-58 -274 -394 -406l-6 -28q-8 -36 -24 -62l-12 -118q-20 -6 -58 -14q-16 12 -46 42q-2 -2 -76 -62l-24 14l-42 -18q4 212 14 338h40l12 40q78 18 150 50q108 46 118 96q10 46 -68 46q-98 0 -262 -78l6 26q32 42 48 68l-72 -6l10 40l48 64l-36 2l80 48h-60 l-54 -22h-14l-12 84q270 166 444 166q128 0 212 -66t84 -180q0 -32 -6 -64zM606 328l-4 -190l-20 6l-74 -42l44 -2l38 14h12v-50l-402 -84l6 60l44 44l-36 38l4 46l46 16h18l30 26l-58 14l-32 -18l4 52zM530 1128l-38 2l-34 -12h-10l-22 -16l38 -10zM362 168l-32 8l-52 -30 l28 -2l30 12l8 -2z" />
<glyph unicode="@" horiz-adv-x="1548" d="M1324 104l-10 20l-54 -8l34 74h-14l-50 -50l-18 42l4 14l-24 16l-12 -52l30 -38l-30 -28q-110 94 -134 264q-144 -84 -288 -84q-110 0 -184 52q-84 56 -84 152q0 106 96 224l-20 -30l42 12l12 16q64 30 110 92l-102 -48q168 164 382 164q48 0 92 -10l16 58l90 10l34 -62 l32 30l16 -10l-12 -20l10 -72l20 42l2 38l40 -24q-82 -280 -82 -396q0 -72 20 -128q162 198 162 414q0 162 -102 265t-272 103q-264 0 -506 -226t-242 -490q0 -120 60 -213t168 -133l-54 4l70 -100l-56 -30l50 -28l-46 -16l-20 -48q-106 22 -182 68l16 2l-44 66l-76 6 q-160 154 -160 412q0 80 18 162q78 366 423 645t711 279q222 0 376 -112q22 -14 52 -54h-78l-10 -50l-108 38l70 -100l-48 -40h102l-30 56h60l6 30l60 -8l36 16q104 -144 104 -336q0 -232 -144 -472q-130 -216 -330 -370zM1674 1180l-18 30l-62 4l24 -22l28 -8l6 -8z M1438 1248l-24 34l-72 8l26 -28l34 -10l8 -8zM1436 1180l-16 26l-56 6l18 -22l26 -8l8 -6zM1262 836l-8 16l-20 -30l10 -50l12 30l2 26zM1396 324l-20 -10l-16 -34l18 12l10 16l6 4zM1382 252l-38 -20l-30 -60l30 22l20 28l10 6zM764 712l-40 -18l-16 -22l14 4q16 12 42 36z M984 564q12 62 -74 62q-50 0 -94 -26q-50 -30 -60 -76q-14 -64 72 -64q48 0 97 28t59 76zM682 690l-68 -32l-28 -40l24 8l8 10q36 16 64 54zM290 132l-6 22l-34 16l8 -20l16 -10l2 -6zM300 44l-10 36l-54 22l14 -30l24 -16l4 -10z" />
<glyph unicode="A" horiz-adv-x="856" d="M1076 768q-6 -20 -20 -62q-6 -14 -28 -30t-26 -38q-2 -8 6 -25t6 -31q-8 -20 -20 -62l-28 -8q-4 -94 -4 -183q0 -60 2 -117l-28 -8q-30 -46 -38 -56q-22 -26 -54 -42q4 -4 -2 -6q-8 0 -21 12t-19 12q-4 -2 -2 -4q-42 -14 -124 -46q-12 160 -16 342q-110 -38 -304 -122 q-50 -136 -92 -270q-4 -2 -8 -2q-8 0 -15 14t-13 14q-14 0 -29 -33t-25 -39q0 4 -2 4q-4 0 -36 -23t-36 -25q22 22 34 76l14 16l-8 32l-54 -58l-8 -76q-20 -10 -34 -10q-16 0 -17 20t-3 20q-8 0 -32 -42h-4q42 148 82 336q88 420 310 1002l140 44q16 6 74 44q38 24 84 24 q34 0 142 40q-22 -48 -40 -96q22 6 64 20q12 14 44 34q4 2 16 6l-28 -50l32 -90l28 68l-6 52l8 18l-8 10q44 20 136 52q-64 -310 -86 -686zM874 1180l-12 16l-26 -46l20 -56l18 42l-4 32zM666 1048q-140 -314 -202 -478q106 54 192 88q0 194 10 390zM184 256l-2 14l-26 -26 l-6 -48l20 28l6 24zM230 178l-4 24l-38 -42l-6 -70q34 40 40 78z" />
<glyph unicode="B" horiz-adv-x="956" d="M1234 1114q-52 -244 -308 -428q110 -40 110 -142q0 -72 -54 -168q-108 -190 -328 -290q-186 -84 -402 -84h-10l-22 -28l-24 20l-44 -32l4 46q-56 4 -118 20l16 34q30 2 96 38l-20 18l48 16l-30 8l-28 -4l-6 2l-8 -2l-8 6l-8 18l74 32l-16 68l32 -4q42 372 92 656 q-80 -48 -154 -98q0 28 -2 82l42 -2l92 72l-62 -8l-50 -28l-16 -2l-6 -8l-2 40q4 0 10 6q0 2 -9 10t-9 14l10 6q-2 2 -2 4q2 6 38 24t38 24q0 4 -2 11t-24 9t-24 12l8 6q-30 -8 -44 -8q-16 0 -4 8q-2 -2 -8 -6q-10 0 9 22t21 24q-2 2 -8 2l6 32q6 2 48 30q388 246 730 246 q148 0 240 -58q104 -66 104 -192q0 -36 -8 -74zM882 1024q0 80 -104 80q-46 0 -112 -16q-40 -126 -110 -378q326 180 326 314zM356 1170l-62 -8l-50 -28h-18l-26 -32l62 -4zM348 1042l-34 -4l-24 -14l-12 -2l-12 -16l32 -2zM718 402q1 5 1 9q0 35 -77 35q-60 0 -154 -24 q-12 -58 -46 -172q74 12 156 50q108 48 120 102z" />
<glyph unicode="C" horiz-adv-x="816" d="M988 1384l-10 -76l-56 -60l6 -34l-48 -36l-22 -2l-22 -40l82 -2l22 24l12 -50l-74 -40l58 -80q-288 -84 -434 -298q-104 -154 -104 -254q0 -84 66 -138t160 -54q92 0 234 58l22 -68l-24 -78l24 -20l-30 -20l-12 -2l-12 -24h48l26 28l12 -52l34 -28q-302 -78 -462 -78 q-164 0 -282 122l2 76l-88 90l8 -58q-58 110 -58 252q0 80 18 164q68 318 328 536q250 210 576 242zM860 1282l-42 -8l-32 -22l-12 -2l-14 -24h48zM730 1142l-32 -6l-22 -14l-8 -2l-10 -16h34zM806 188l-44 -8l-30 -22l-14 -2l-14 -24h48zM196 226v44l-50 54l4 -42l22 -30 l2 -12z" />
<glyph unicode="D" horiz-adv-x="958" d="M1246 968q-38 -176 -176 -372q-188 -260 -466 -438q-284 -182 -578 -222l28 72l2 2l60 -2l98 84l-68 -12l-18 -10q-4 30 -4 136l70 14q30 332 90 680q-80 -38 -160 -88q32 126 86 218l-32 50h26l84 72l-58 -10l-52 -30l28 86l-32 32q342 180 652 180q198 0 310 -80 q124 -84 124 -250q0 -52 -14 -112zM404 1144l-44 -8l-38 -22l-12 -2l-18 -22l48 -2zM860 804q6 30 6 54q0 150 -203 150h-5q-104 -334 -174 -664q134 84 234 200q116 132 142 260zM406 158l-28 -4q-20 -14 -28 -14l-12 -14h28zM310 170l-38 -6l-26 -18h-10l-18 -20h38z" />
<glyph unicode="E" horiz-adv-x="810" d="M1192 1460q-26 -50 -44 -104h-18l-34 -16l-8 2l-24 -20l38 -6l44 28q-6 -14 -16 -44l-90 -46l88 -6q-20 -34 -52 -106q-268 -60 -464 -130q-22 -60 -38 -116q144 46 324 94q-6 -16 -16 -46q40 10 116 26l-52 -114q-26 -8 -50 -12q4 -10 16 -30q-10 -16 -20 -40l-194 -54 q-110 -32 -192 -70q-38 -132 -76 -342l162 80l20 -18q90 42 250 102q-4 -8 -62 -134l46 18q-12 -28 -28 -84q-356 -144 -714 -380q-2 16 2 48q14 24 32 70q-16 30 -30 48q8 10 22 38l-24 -2v8q12 10 44 32q14 160 46 378q-24 -14 -78 -38q0 48 -4 72q18 32 32 54l-26 18 q14 42 42 102q52 24 78 38l24 116q-54 -22 -162 -70q12 20 88 136q-8 16 -20 48q38 32 62 56q-2 2 -6 64q-2 12 -4 18l40 52q224 88 406 152l16 34q258 64 508 96zM992 1270h-26l-24 -12l-8 2l-16 -14l28 -6zM846 932l-36 -2l-32 -14h-12l-20 -18l38 -8zM320 188h-22 l-22 -10h-6l-12 -12l22 -4zM224 112l-36 -2l-32 -14h-12l-20 -18l34 -8z" />
<glyph unicode="F" horiz-adv-x="750" d="M1178 1484q-32 -50 -78 -154q-8 -28 -28 -78l56 14q-26 -36 -50 -96q-118 -32 -216 -64q-78 -36 -226 -84l-54 -178q92 42 184 78l-6 -36l176 56q-26 -74 -36 -122l-12 -2l-36 -20h-12l-22 -22l42 -2l34 24q-10 -30 -26 -90q-238 -78 -366 -128q-62 -162 -132 -552 q-26 -12 -76 -38l6 34l-100 -60q6 80 10 120l-80 -156q16 168 66 508l-80 -42q18 34 60 98q-16 12 -36 38q6 28 14 82l82 52q16 94 40 188l-84 -40l14 60l42 64l32 -2l70 50l-42 -6q-34 -20 -48 -20l-4 -4q-8 24 -10 68q0 56 -4 72q22 26 34 44h-28l2 10q46 30 142 84 q168 88 462 190l22 -24zM496 1074h-26l-22 -10h-8l-12 -14l22 -4zM404 1092h-36l-34 -16l-8 2l-22 -20l36 -6zM330 222l-10 10l-18 -30l16 -34l10 26l-2 20zM280 160l-14 14l-22 -42l20 -50l16 38l-4 30z" />
<glyph unicode="G" horiz-adv-x="1050" d="M1312 976q-12 -32 -30 -96l-26 -18h-44l-82 -76l58 12l46 30l16 2l4 4l30 2l-30 -92l-128 -48q-28 -128 -70 -380q-2 -52 -6 -102q-4 -60 -22 -98v-130q-18 -8 -54 -22q-18 14 -54 36q-46 -46 -70 -74l-28 12l-42 -24q-6 56 -12 140q-278 -96 -436 -96q-150 0 -234 116 q-76 102 -76 258q0 62 12 122q90 424 522 746q224 168 516 230l-20 -76l-56 -80l6 -42l-12 -4l-34 -26l-14 -2l-16 -26l50 6l30 30l6 -34l-54 -58l18 -84q-302 -120 -476 -352q-134 -176 -134 -282q0 -66 47 -104t119 -38q82 0 220 56q-5 22 -5 85q0 47 3 117l-266 -154 l50 102l20 4l30 18l10 2l18 20h-40l-28 -24l-22 36l48 54l-24 24q18 32 28 48q62 36 188 100l2 28q44 18 134 52l6 16q182 72 408 134zM962 1262l-58 -18l-46 -34l-16 -2l-22 -34l64 8zM824 1108l-32 -10l-24 -18l-8 -2l-12 -18l34 4zM1064 822h-40l-52 -50l36 8l30 20h12z M124 246l-10 80l-26 -46l-2 -42l-10 -14l12 -24z" />
<glyph unicode="H" horiz-adv-x="972" d="M1276 1414q-118 -308 -180 -508l100 24q-14 -34 -58 -122q-34 -10 -54 -14l18 -32q-10 -32 -32 -94q-22 -8 -48 -14q-18 -86 -68 -252q-30 -66 -58 -232q-28 -12 -62 -20q-4 4 -32 50q8 14 6 56l8 14l-14 24l-32 -48l8 -40l-78 -84l-24 24q-16 -8 -48 -26q18 142 60 426 q-44 -12 -212 -88q-40 -216 -68 -426q-30 -22 -88 -52l12 28l-2 52l8 18l-18 30l-38 -62l12 -46q-46 -28 -84 -60q-2 43 -2 82t2 74l-78 -188h-6q44 746 142 1292q16 6 28 6q8 0 22 -4t22 -4q26 0 78 42l20 -76l18 48l-2 40l8 14l-6 8q12 16 30 16q12 0 32 -7t32 -7 q24 0 66 40q52 48 70 56l-144 -598q20 8 196 74q38 228 122 550l92 28l-30 -42l24 -114l30 68l2 60l10 20l-10 16l78 24q6 -32 12 -60l72 60q34 10 100 26q-10 -26 -26 -80q40 8 62 10zM1032 1262l-12 24l-32 -48l14 -80l22 48l2 42zM956 1126l-8 18l-22 -34l10 -54l16 32 v28zM296 286l-14 24l-30 -50l18 -78l20 48v42z" />
<glyph unicode="I" horiz-adv-x="486" d="M726 1294q-166 -500 -262 -952q-8 -36 -26 -106q-10 -22 -26 -68q-8 -58 -22 -172l-60 -24q-14 20 -38 64l2 38l12 18l-14 38l-48 -68l6 -68q-18 -18 -46 -56l-22 24q-22 -12 -44 -30q78 782 192 1326q62 22 186 70q2 -18 10 -50l-20 -26l10 -104l30 60l6 54l10 16l-4 16 l38 38q48 14 92 32q-2 -6 -2 -12q0 -8 14 -15t10 -23q2 -4 6 -8q-2 -14 2 -14zM444 1166l-10 24l-30 -42l8 -70l22 42l2 36zM462 1002l-4 14l-18 -24l4 -42l14 24l2 22zM370 236l-10 22l-28 -40l6 -70l22 40l2 36z" />
<glyph unicode="J" horiz-adv-x="784" d="M1164 1434q-6 -44 -24 -134l-42 6l-96 -68l60 4l52 26h18l-12 -40l-36 -10l20 -38l-28 -54l-134 -28q-82 -354 -328 -1140l-8 6l-6 -28q-386 16 -656 186l58 46l12 50l6 -22l94 -30l-26 48l-44 22l-4 16h-8q38 20 80 58q2 12 -3 36t-3 38l6 12q152 -86 328 -134 q84 396 120 716q-178 -76 -388 -176l36 102q20 16 52 46q-6 2 -46 26l6 12l26 -4l94 64l-60 -2l-50 -24q6 30 26 84q-6 18 -14 52l426 168q238 98 456 158l-30 -62q34 4 70 12zM968 1218l-26 4l-40 -30l26 2l22 10h8zM942 1274l-46 4l-66 -46l42 2l36 18h14zM220 188l-16 38 l-30 18l-4 12l-28 2l12 -44zM240 110l-20 24l-26 10l-6 8l-20 -2l16 -32z" />
<glyph unicode="K" horiz-adv-x="1012" d="M1296 1114q-248 -262 -662 -646q188 -98 256 -130q146 -72 268 -116q-12 -50 -12 -90l-34 10v-34l-16 26l-112 16l40 -46l52 -18l12 -14l24 4v-52q-10 4 -14 4t0 -8q16 -20 14 -22l-12 4l2 -62l-360 106q-210 62 -350 122q-16 -72 -26 -172l-60 -24q-14 20 -40 64l4 38 l12 18l-14 38l-48 -68l6 -68l-46 -56l-22 24l-44 -30q12 116 26 232q15 142 15 187q0 14 -1 19l8 6q28 322 144 882q62 22 184 70l10 -50l-20 -26l12 -104l30 60l6 54l10 16l-6 16l40 38l92 32q-14 -44 -22 -84l60 14q-108 -324 -162 -530l614 708q6 -18 2 -52 q-6 -44 -6 -52q0 -18 7 -34t43 -22q30 -6 28 -56l-48 -16l-68 -100l62 32l40 44l12 6q-2 -14 -2 -24q0 -36 33 -51t39 -33zM1040 1166l-42 -14l-38 -56l36 18l24 26l12 4zM418 1166l-8 24l-30 -42l8 -70l20 42l4 36zM438 1002l-4 14l-20 -24l6 -42l14 24v22zM932 94l-20 32 l-64 10l24 -26l30 -10l6 -8zM344 236l-8 22l-28 -40l6 -70l20 40l4 36z" />
<glyph unicode="L" horiz-adv-x="668" d="M916 442l-24 -52l-44 6l-92 -64l58 2l50 26h16q-8 -22 -26 -68l-50 -16l16 -28l-18 -40q-304 -100 -690 -310q-2 22 -2 72q12 26 30 54l-26 14l8 32l16 2l28 14h10l18 18l-38 4l-28 -20q6 24 26 68q58 646 156 1108l128 42l-20 -30l14 -94l28 56l2 50l10 16l-6 12l44 14 q6 -26 16 -58l72 64q42 10 100 28q-12 -40 -22 -80q24 6 64 14q-178 -528 -272 -970l344 128l-14 -48q40 10 118 34zM506 1178l-8 22l-32 -40l12 -70l20 40l2 36zM746 288l-38 6l-56 -40l36 2l30 14h10z" />
<glyph unicode="M" horiz-adv-x="1242" d="M1452 1406q-62 -356 -62 -688q0 -214 26 -422l-96 -80q-20 26 -44 68q-18 -26 -58 -78q8 -32 24 -70q-40 -12 -120 -34q-84 348 -108 614q-154 -258 -252 -518q-6 0 -8 -8t0 -23t0 -21q-2 -8 -8 -6q0 -12 -18 -12l-10 2l4 38l10 16l-14 32l-44 -58l6 -46l-74 -26 q-90 178 -146 316l-100 -348h-8q-12 0 -25 7t-21 7q-14 0 -30 -14l2 6l-6 36l6 14l-16 18l-24 -46l20 -46h-26l-16 -50q-10 -2 -130 -32q106 804 272 1220h82l-30 -40l10 -100l32 58l4 52l10 16l-6 14q6 0 19 2t19 2q14 0 21 -23t23 -23t90 38l96 88l-6 -44q24 10 44 10 q-26 -50 -64 -150q-24 -108 -24 -248q0 -160 30 -258q66 294 280 726q38 -4 96 -20l14 64l98 46l-14 -28l26 -66l14 46l-6 36l4 12l-6 10l178 84q-4 -32 -10 -114zM496 958l-6 36l4 12l-16 20l-22 -46l28 -68zM674 254l-6 36l4 12l-16 20l-22 -48l26 -66z" />
<glyph unicode="N" horiz-adv-x="1046" d="M1252 1340q-152 -600 -178 -1104q-50 -36 -76 -52q-16 44 -24 82l-52 -62l6 -76h-56q-2 -2 -26 -72q-246 282 -360 486q-8 -30 -36 -156q-8 -48 -34 -140q-8 -18 -20 -58q-10 -50 -26 -172q-38 -16 -58 -20l-12 14l20 40l6 50l8 14l-10 32l-42 -56l6 -62l-20 30l-82 -96 l-24 22l-44 -28q72 752 180 1262q10 4 58 4q30 0 66 26q48 34 62 40q-2 -20 -2 -48.5t2 -65.5q18 18 40 59t38 59q34 10 92 30q-2 -14 7 -24t5 -24h6l6 8q0 -12 3 -20t11 -6l-6 -22q64 -370 154 -574q-1 16 -1 34q0 167 65 572l68 38q6 36 20 72q40 12 116 26l-28 -38 l10 -100l30 58l6 52l10 16l-8 18q38 6 94 20q-16 -72 -22 -110q20 8 52 22zM1032 1204l-10 22l-28 -38l8 -70l20 40l4 36zM324 320l-8 22l-30 -40l8 -68l20 40l4 34zM238 132l-10 22l-30 -40l8 -68l22 40l4 34z" />
<glyph unicode="O" horiz-adv-x="1114" d="M352 -54q-214 0 -308 152l20 -4l-8 62l-50 30q-20 68 -20 144q0 232 168 490q160 248 400 414q254 174 482 174q142 0 238 -76l22 -88l-60 4l-2 32l-84 46l16 -54l36 -30l2 -16h2l-12 -58l-84 -38l-64 36l16 -54l12 -10l-48 -54l64 38l6 -4l4 -16l34 -10l-4 42l96 8v36 l50 12l-12 38l90 -38l26 22q22 -72 22 -154q0 -230 -166 -490q-160 -248 -400 -412q-254 -174 -484 -174zM1180 966l-4 42l-54 30l10 -36l22 -20l4 -10zM1052 806q0 92 -50 149t-146 57q-192 0 -379 -198t-187 -392q0 -90 51 -147t147 -57q192 0 378 197t186 391zM192 166 l-4 36l-48 26l10 -30l20 -18l2 -10zM216 14l-6 64l-84 46l16 -54l36 -30l4 -16z" />
<glyph unicode="P" horiz-adv-x="860" d="M1218 1112q-52 -240 -292 -442q-166 -140 -468 -292l-22 -102q-2 -12 -13 -36t-13 -36q-2 -2 -20 -158q-20 -10 -60 -28v2l22 36l-24 94l-24 -58l2 -38l-20 24l-84 -104l-24 20l-44 -32q60 648 128 994l-38 -20l12 12l-62 8l-68 -48q-8 30 -10 54q32 14 74 36l-28 24 l28 14h18l26 30l-60 8l-28 -20l-4 28q28 36 42 60q-34 -8 -68 -12l6 32q8 2 50 30q168 108 356 174q206 72 372 72q148 0 242 -58q104 -68 104 -194q0 -36 -8 -74zM194 918l-78 -52l-2 24l28 2l48 26h4zM850 984q0 106 -158 106q-20 0 -42 -2q-44 -134 -116 -400 q316 162 316 296zM348 1162l-44 6l-70 -48l44 2l38 18h12zM290 192l-14 68l-18 -42l2 -34l-8 -12l12 -22z" />
<glyph unicode="Q" horiz-adv-x="1140" d="M1082 328q52 -90 114 -266q-38 -14 -126 -36l-22 16v48l-98 36l14 -56l38 -28l2 -18h8l2 -32q-14 -2 -124 -32q-26 46 -82 138q-240 -152 -458 -152q-208 0 -302 152l22 -4l-8 62l-52 30q-18 66 -18 142q0 230 166 490q160 250 398 416q254 174 484 174q142 0 238 -76 l24 -88l-60 4l-2 32l-84 46l16 -54l34 -30l4 -16h2l-12 -58l-86 -38l-64 36l16 -54l12 -10l-48 -54l66 38l6 -4l2 -16l36 -10l-6 42l96 8v36l52 12l-12 38l90 -38l26 22q22 -68 22 -148q0 -176 -102 -378q-88 -174 -224 -322zM1184 966l-2 42l-56 30l10 -36l24 -20l2 -10z M1056 796q0 96 -48 154q-54 66 -150 66q-170 0 -346 -172q-166 -162 -204 -336q-8 -42 -8 -82q0 -92 44 -148q50 -64 142 -64q84 0 190 54q-94 102 -276 262q44 6 134 20l6 -20l24 -18l2 -12l28 -2v44l-32 12q16 18 50 52q34 -8 70 -12l32 40q42 4 64 4q52 -50 150 -156 q128 162 128 314zM1000 268l-64 24l8 -36l26 -18l2 -10l28 -2v42zM196 166l-2 36l-48 26l10 -30l20 -18l2 -10zM220 14l-4 64l-84 46l16 -54l36 -30l2 -16z" />
<glyph unicode="R" horiz-adv-x="914" d="M1208 1110q-74 -346 -560 -626q222 -172 418 -276q-18 -48 -26 -90l-28 14l-6 -32l-14 22l-106 14l40 -42l46 -16l12 -12h14l-8 -50q-8 2 -14 2t-24 -6q-10 -4 -26 2l40 -80l-286 126q-168 74 -276 138q-14 -62 -22 -152q-20 -10 -60 -28l-2 2l22 36l-22 94l-24 -58 l2 -38l-20 24q-2 -2 -86 -104l-22 20l-46 -32q60 640 128 994l-38 -20l14 12l-64 8l-66 -48q-8 34 -10 54q2 0 72 36l-28 24l28 14h16l30 30l-62 8l-28 -20l-2 28q28 36 42 60l-70 -12l6 32q12 6 52 30q390 246 728 246q150 0 240 -58q104 -68 104 -194q0 -36 -8 -76z M186 918q-52 -32 -78 -52q-2 14 -4 24l26 2l52 26h4zM842 984q0 106 -158 106q-20 0 -42 -2q-86 -252 -118 -400q318 162 318 296zM340 1162l-46 6l-68 -48l44 2l36 18h14zM884 184l-22 34l-68 10l24 -28l32 -10l6 -10zM282 192l-16 68l-18 -42l2 -34l-6 -12l12 -22z" />
<glyph unicode="S" horiz-adv-x="714" d="M1060 1242l-2 -64q-446 -238 -480 -396q-1 -6 -1 -12q0 -45 65 -82l148 -82q82 -62 82 -160q0 -28 -6 -62q-52 -238 -464 -510q-6 4 -4 16q2 8 13 27q13 23 13 28q0 11 -62 11q-26 0 -38 -4l100 86q-72 -10 -126 -58l-20 -4l-14 -16l-42 20q284 174 304 270q2 7 2 13 q0 53 -99 106l-221 117q-122 82 -122 192q0 22 6 48q48 222 360 470q252 200 528 318q2 -20 18 -48q22 -36 26 -46l-30 -6l-54 -38l-16 -2l-36 -44l56 -6l82 78q-2 -12 -36 -78l52 -50h-2l-40 -28l-12 -2l-26 -30l40 -4l50 44zM918 1276l-36 -6l-34 -26h-10l-22 -30l36 -2z M568 96l-46 -14l-38 -26l-14 -4l-22 -26l44 4z" />
<glyph unicode="T" horiz-adv-x="682" d="M1104 1434q-6 -44 -24 -134l-42 6l-96 -68l60 4l52 26h18l-12 -40l-36 -10q10 -22 20 -38q-18 -34 -26 -54q-146 -28 -254 -58q-106 -314 -192 -722q-8 -34 -26 -98l-18 -54q-14 -62 -26 -178q-22 -8 -58 -20q-18 22 -44 64l-46 -54l2 40l12 16l-14 32l-44 -58l8 -70 l-2 -2l-22 22l-44 -28q58 602 122 964l-258 -120l34 102l52 46l-44 26q8 48 40 130q-2 0 -12 52q520 226 880 326l-30 -62q34 4 70 12zM910 1218l-28 4l-40 -30l26 2l22 10h8zM882 1274l-44 4l-68 -46l42 2l36 18h14zM444 260l-10 24l-30 -42l8 -76l20 44l4 38zM358 186 l-8 18l-26 -32l8 -58l18 32l2 30z" />
<glyph unicode="U" horiz-adv-x="986" d="M1292 1458q-158 -476 -256 -936q-8 -34 -27 -87t-23 -77q-2 -8 -22 -164q-38 -16 -58 -22q-26 44 -42 66q-52 -58 -84 -98l-24 20l-44 -28q2 12 14 138q-180 -90 -366 -218l-2 -8q-48 -24 -86 -50l6 12l6 52l8 16l-14 30l-42 -56l10 -72q-36 -22 -56 -38q2 18 10 60 q-16 -8 -48 -30q0 6 18 158l-86 -166l-12 2q84 506 110 644q68 362 142 636q12 4 24 4q10 0 26 -6t26 -6q28 0 74 34l10 -96l32 56l2 50l12 16l-6 12q18 4 30 4t27 -9t27 -9q26 0 70 36q50 44 72 52l-160 -478q-92 -278 -142 -478l316 182q46 394 134 818l186 68 q4 -32 12 -60l66 64l22 8l-28 -36l12 -98l30 56l4 50l10 16l-6 18q16 4 50 16q-10 -30 -20 -80q30 4 56 12zM1042 1358l-6 18l-26 -32l6 -58l16 32l4 30zM1080 1260l-8 18l-24 -32l6 -58l18 34l2 30zM254 174l-6 18l-26 -34l6 -56l18 32q2 24 8 40z" />
<glyph unicode="V" horiz-adv-x="834" d="M1290 1458l-366 -690q-206 -396 -334 -700q-18 -8 -98 -30l20 48l-66 -28v-36l-56 -28q-34 34 -54 56l-68 -106l-26 16l-42 -32q-28 458 -28 820q0 228 10 440q38 18 96 50l-14 -26l28 -90l20 58l-2 48l6 18l-6 8l50 28q8 -22 22 -56q28 36 60 72l88 42q-6 -54 -6 -80 l56 20q-82 -496 -106 -790q190 500 392 920q18 0 40 -16t40 -16q26 0 67 25t59 29l-24 -20l-24 -102l46 48l22 50l12 12v4q30 -30 42 -30q24 0 74 30t70 34zM948 1264v24l-38 -30l-18 -70l34 32l12 34zM972 1168v18l-26 -20l-10 -50l20 22q10 24 16 30zM400 1098l-16 22 l-26 -48l22 -74l16 48l-4 38z" />
<glyph unicode="W" horiz-adv-x="1294" d="M1754 1346q-368 -570 -562 -1110l-32 -10l10 -30q-62 -6 -152 -30l-152 -42l8 26l-14 62l6 22l-30 32l-34 -82l32 -68l-62 -10q-10 154 -10 278q0 244 40 448q-96 -138 -168 -338q-2 -8 -106 -352q-14 16 -108 20l-2 -56q-12 -4 -20 -4q-6 0 -17 3t-15 3q-14 0 -32 -26 t-40 -24l-6 -52l-40 -18l6 22l-10 56l6 20l-24 30l-34 -72l28 -70l-56 -26q-54 480 -54 746q0 232 32 440q134 38 140 38q16 0 30 -17t26 -13l10 -86l32 56l4 52l6 10l77 62q41 32 77 44q-54 -220 -80 -492q120 176 442 526q48 -22 76 -30q-6 -16 6 -16q6 0 15 3t13 3 q12 0 6 -14q2 -2 4 -8q-2 -8 -9 -23t-9 -21q2 -4 6 -6q-2 -51 -2 -103q0 -176 26 -359q32 148 262 604l94 26q18 32 48 70q184 0 300 6l-62 -112q36 4 74 12zM1572 1386l-2 40l-62 -50l-20 -116l48 56l22 56zM1522 1220v28l-44 -32l-18 -78l36 36l16 36zM424 978l-6 36l4 12 l-16 20l-22 -46l28 -66zM882 354l-8 36l6 14l-16 20l-22 -48l26 -66z" />
<glyph unicode="X" horiz-adv-x="870" d="M1496 1412l-388 -374q-230 -222 -378 -384q22 -58 56 -178q0 -16 6 -46q4 -18 78 -200q-14 -14 -44 -48q-42 20 -78 42q-8 -44 -26 -134l-34 10q-12 -16 -28 -48l-174 340l-370 -414h-52q-34 -2 -52 -2q26 26 38 44l-46 -8l36 22l42 60l22 12l14 48l-84 -38l-56 -108 q-24 -4 -68 -8l63 83l63 83l-180 -138l-8 8l516 628q-128 290 -184 462q2 2 62 72l2 -6l74 -72l-4 64l-28 44v14l34 38q16 -16 46 -50l30 94l72 70q10 -28 26 -84l50 38q22 -106 90 -360q106 126 452 498q18 -4 34 -32t44 -28q18 0 58 12t60 12q16 0 24 -10l-38 -18l-40 -74 l44 26l26 36l12 6l4 12q14 -46 46 -46q16 0 57 16t63 16q8 0 16 -2zM1144 1348l-48 -22l-40 -76l44 28l24 34l12 8zM1092 1228l-50 -22l-40 -76l44 28l26 34l12 8zM434 1076l-4 48l-18 30l-2 14l-22 14l-8 -54zM700 204l-14 40l-28 24v12l-28 4l6 -46z" />
<glyph unicode="Y" horiz-adv-x="834" d="M1318 1382l-84 -102q12 -6 54 -16q-88 -98 -482 -570l-186 -222q-54 -80 -176 -224q-46 -48 -232 -300q-24 0 -60 4q12 56 16 88l12 6l34 46l16 10l12 36l-64 -28l-34 -60q-60 -40 -114 -70v42l-56 -14l412 634q-136 238 -254 506q14 14 44 23t44 23t38 74q18 44 60 52 l-6 -46l76 -72l-4 64l-28 44v18h-2q26 16 44 65t34 65q90 -252 184 -488l348 478q40 -2 118 -8l-30 -14l-54 -98l56 34l34 46l14 8l8 22l48 -4q-24 -52 -38 -90q34 18 104 50q46 -8 94 -12zM1056 1272l-50 -22l-40 -76l44 28l24 34l14 8zM446 1000l-2 30l-12 20l-2 8l-14 8 l-4 -32zM352 1060l-4 46l-20 32v14l-24 12l-8 -52zM284 266l-48 -22l-40 -76l42 28l24 34l14 8z" />
<glyph unicode="Z" horiz-adv-x="870" d="M1240 1398q-28 -54 -42 -100l-20 2l-32 -10l-10 2l-18 -16l32 -12l44 22l-16 -44q-30 -10 -86 -32l82 -20l-2 -8l8 -4l-22 -22q-12 -22 -32 -68h-30q-350 -388 -624 -788q28 12 176 64l20 -20q140 42 240 62q-20 -48 -58 -126l42 8q-10 -26 -28 -80q-362 -100 -690 -276 v50q14 22 34 64l-30 58l22 36h-24l2 10l20 14l-92 18q298 500 552 844q-166 -34 -476 -126q14 26 86 126l-18 52l60 48q-6 14 -6 44t-4 44q12 16 40 48q202 50 392 88l18 32q164 16 490 16zM1044 1236l-24 4l-24 -8l-8 2l-14 -12l26 -10zM874 944l-24 -26l-14 -32l-8 -8v-26 l32 22zM388 226l-22 4q-18 -8 -24 -6l-14 -10l22 -8zM296 162l-34 6l-32 -10l-10 2l-22 -16l36 -12z" />
<glyph unicode="[" horiz-adv-x="720" d="M1096 1728l-22 -88l-86 -68l18 -16l-8 2l-102 -56l58 -2l54 20l16 -2l-8 -96l-240 -14q-180 -612 -290 -1128q-8 -42 -30 -122q-10 -22 -26 -68q-4 -24 -16 -108l372 26l-22 -86l-86 -66l22 -22l-80 -44l58 -4l34 12l-12 -94l-660 -32v38l98 64l-36 14l8 2l16 -2l32 28 l-58 14l-42 -24l-8 4l8 70l54 16l-38 30l14 30l74 6q94 760 228 1422l-68 -4l-2 38l100 66l-44 16l10 2l14 -2l34 28l-58 14l-48 -26l-4 2l10 68l52 18l-38 30l14 30zM920 1566l-42 10l-74 -40l44 -2l38 14l12 -2zM514 1594l-32 8l-54 -30l32 -2l28 10h10zM680 -52l-42 10 l-74 -40l42 -2l40 14h12zM270 -200l-32 8l-56 -30l32 -2l28 12l10 -2z" />
<glyph unicode="\" horiz-adv-x="922" d="M1034 36l-14 -8q-52 66 -100 138q18 -106 30 -166l-70 10l-8 80l-52 28l-4 -38l12 -8l14 -46l14 -12l-38 6l12 -44q-32 0 -100 2q-88 292 -126 408q-74 226 -146 396l-280 630q8 2 14 2q22 0 55 -16t53 -16q26 0 46 19t38 39l-2 -16l16 -12l20 -60l54 -46l-14 130l-22 10 q78 -22 82 -22q26 0 58 28t56 34q108 -306 218 -718zM564 1226l-6 76l-40 22l-4 -28l10 -8l10 -34zM568 1046l-8 76l-38 22l-6 -30l10 -6l12 -34zM842 168l-8 76l-42 22l-4 -28l10 -8l12 -34z" />
<glyph unicode="]" horiz-adv-x="784" d="M1118 1634l-56 -30l50 -18l-24 -68l-4 -2l-34 26l-66 -14l20 -28l20 2l6 -2l-50 -16l72 -66l-16 -38l-70 4q-142 -640 -374 -1422l68 -6l4 -30l-50 -30l44 -16l-18 -70l-12 -4l-32 24l-66 -14l22 -28l18 2l4 -2l-38 -14l68 -64l-16 -38l-644 32l30 94l24 -12l62 4l-62 44 l32 22l-56 66l14 86l360 -26l30 124q0 18 4 52l126 664q36 206 86 586l-238 14l32 96l20 2l44 -20l62 2l-80 56l-12 -2l28 16l-60 68l18 88l706 -64zM1008 1572l-42 30l-34 -8l12 -14h8l24 -10zM616 1536l-58 40l-46 -10l16 -20l14 2l30 -14zM490 -222l-40 30l-34 -8l10 -14 l8 2l24 -12zM170 -82l-56 40l-48 -10l16 -18h14l30 -14z" />
<glyph unicode="^" horiz-adv-x="628" d="M922 1108l-98 -62l-34 30l-12 -58l-64 -30l-118 186l-226 -164h-66l20 34l12 6l28 32l14 6l12 30l-50 -18l-26 -40l-34 -6l-2 34l-50 -42l-32 26l336 364l108 36l24 -96l22 70l54 8zM458 1232l-50 -18l-48 -76l44 26l28 32l14 6z" />
<glyph unicode="_" horiz-adv-x="952" d="M1016 322l-4 -26l-8 4l-102 -58l60 -2l46 18l-4 -24l-80 -72l42 -32l-2 -114l-962 -138l-4 36l92 72l-94 24v16h12l38 14h12l24 18l-44 12l-40 -24v32l52 22l-42 26l14 30zM886 188l-44 12l-72 -42l42 -2l38 14h12zM802 116l-44 10l-72 -40l42 -2l38 14l12 -2zM286 8 l-60 14l-100 -54l58 -2l54 20l16 -2z" />
<glyph unicode="`" horiz-adv-x="698" d="M934 1290l-36 -30l-2 2l-60 26l16 -32l16 -12l-28 -12l-36 -40l-2 4l-82 34l22 -44l36 -24l-46 -54l-354 358l82 50l56 -2l28 68l16 14l24 -18l4 -10l24 -2l-10 38l-20 8l90 68zM596 1508l-8 26l-42 20l10 -24l18 -12l4 -8z" />
<glyph unicode="a" horiz-adv-x="894" d="M1100 822l-82 -248l-42 -12q-6 -106 -6 -266v-84q-10 -4 -20 -4q-6 0 -34 6q-22 2 -36 -2l8 26l-4 30l6 14l-14 14l-24 -46l16 -44q-16 -8 -26 -26l-32 -8q0 -8 -2 -52q-42 -14 -124 -46q-12 208 -18 390q-90 -28 -280 -114q-76 -202 -114 -326q-32 -14 -90 -46 q4 18 12 44q-94 -60 -112 -60q-19 0 -19 21q0 13 7 33q-26 -34 -74 -106h-4q22 72 78 328q46 204 92 326q6 16 25 30t25 46q6 20 7 62t5 62q26 122 164 486q48 16 140 44q38 0 118 16h2l-42 -44l-10 -102l42 58l18 54l12 16l-4 26q22 20 78 54l86 30q-22 -48 -40 -96 q72 20 64 20q10 0 16 -9t10 -9q6 0 10 2q14 16 50 44q46 32 136 72q-60 -306 -84 -636q2 0 110 32zM898 1264l-12 14l-26 -46l20 -56l18 44l-4 32zM544 1120l-4 18l-30 -32l-6 -54l24 30l8 30zM674 1048q-66 -140 -178 -420q4 2 168 76q0 192 10 344z" />
<glyph unicode="b" horiz-adv-x="950" d="M1236 1114q-52 -246 -316 -432q118 -42 118 -146q0 -34 -14 -76l-50 -48l-34 -64l-20 -16l-2 -48l12 8q-110 -138 -298 -222q-176 -78 -348 -78q-10 0 -30 2t-30 2q-12 0 -12 -2h-14q-4 -4 -8 -4q-2 0 -4 8t-4 8t-4 -4q-8 -2 -18 -2q-28 0 -122 20l18 36l58 10l-36 26 l54 36l6 -4l90 32l-46 12l-46 -8l-12 6l-24 -14l-10 2l56 100l36 -4q32 366 98 706l-38 -20l14 12l-64 8l-68 -48q-8 30 -8 54q26 14 72 36l-30 24l30 14h16l30 30l-64 8l-26 -20l-2 28l40 60q-34 -8 -68 -12l6 32q448 276 784 276q146 0 238 -60q102 -66 102 -192 q0 -34 -8 -72zM214 918l-80 -52q-4 14 -4 24l28 2l52 26h4zM870 984q0 106 -160 106q-20 0 -42 -2q-32 -100 -116 -398h6q312 162 312 294zM368 1162l-46 6l-68 -48l44 2l36 18h14zM908 384l-30 -28l-14 -30l-10 -8l-4 -22l38 24zM723 415q0 29 -59 29q-56 0 -178 -30 q-8 -54 -40 -160q277 58 277 161z" />
<glyph unicode="c" horiz-adv-x="762" d="M972 1384l-10 -76l-46 -74l10 -46l-14 -2l-30 -22h-12l-12 -24l46 -2l26 28l8 -36l-44 -52l26 -90q-288 -84 -434 -298q-104 -154 -104 -252q0 -86 66 -140t160 -54q92 0 234 58l-10 -84l24 -32l-14 -2l-40 -28h-14l-18 -32h62l38 44l30 -38l-12 -56l40 -36 q-292 -76 -474 -76q-154 0 -264 114q-102 104 -130 256l34 50l-30 152l-10 -20q28 286 267 559t651 311zM880 1224l-54 -8l-42 -30l-16 -2l-16 -30h62zM762 1084l-30 -4l-22 -16h-10l-8 -18h34zM736 190l-36 -6l-26 -18l-10 -2l-10 -18l38 -2zM162 290l-18 84l-22 -44l4 -42 l-6 -14l12 -28z" />
<glyph unicode="d" horiz-adv-x="912" d="M1234 1078q-4 -154 -100 -336q-166 -314 -481 -538t-653 -268l40 82l56 22l2 34h38l82 70l-58 -10l-44 -28l-16 -2l-2 -2l2 104l70 14q30 332 90 680q-70 -34 -160 -88l30 94h30l100 84l-68 -12l-50 -32l-2 76l54 68l-44 68v72q342 180 648 180q314 0 404 -176l-10 6 l-18 -94zM1150 1000v46l-18 34v14l-22 14l-12 -52zM424 1204l-30 -4l-26 -16l-10 -2l-14 -16h34zM338 1132l-46 -8l-34 -22h-14l-18 -24h48zM834 804q6 28 6 54q0 150 -203 150h-5q-92 -280 -172 -664q134 84 234 200q114 132 140 260zM304 132l-36 -6l-30 -18l-10 -2 l-16 -18h40z" />
<glyph unicode="e" horiz-adv-x="886" d="M1242 1470q-14 -22 -26 -70t-26 -70l-22 4l-58 -40l38 2l28 16l-40 -60q20 6 60 14q-36 -62 -52 -96q-258 -64 -458 -132q-16 -42 -52 -162l226 86l-6 -36l196 56q-36 -104 -70 -234q-192 -54 -422 -134q-42 -154 -88 -364q212 96 424 166l-26 -54q20 4 60 16 q-8 -22 -12 -40l-36 4l-92 -64l60 4l48 24h10l-8 -32l-30 -10l18 -30q-10 -16 -24 -46q-202 -50 -372 -126l-66 -30l-2 -22q-20 -4 -58 -16l-6 6q-116 -56 -250 -130q16 78 68 120v8q-14 2 -34 14q16 28 28 42q-8 14 -12 40l26 14q14 180 38 364q-50 -26 -82 -38l66 98 q-24 18 -42 38q6 28 16 82q32 20 74 44q10 88 30 180q-76 -36 -146 -64l12 60l60 78l-4 8l18 2l34 16h12l16 18l-40 6l-44 -32q-8 16 -22 48q10 12 18 53t18 55h-30l2 10q54 30 160 84q200 92 526 190l24 -24q144 40 344 86zM440 1094l-60 8l-92 -66l58 4l50 24h16zM714 224 l-36 4l-56 -38l36 2l30 14h10z" />
<glyph unicode="f" horiz-adv-x="850" d="M1244 1478q-12 -24 -24 -71t-25 -70l-41 -73q30 4 64 12q-16 -34 -38 -96q-132 -28 -240 -56q-84 -30 -250 -74q-46 -138 -64 -208q178 48 392 72l-44 -92l-28 -16l-46 6l-94 -66l60 2l52 26h16l6 4l30 -2l-42 -90q-216 -52 -372 -104q-8 -30 -44 -198q-8 -46 -34 -136 q-8 -22 -19 -65t-27 -167q-20 -8 -56 -20q-18 20 -44 64l-84 -96l-22 22l-44 -28q14 166 52 498q-48 -22 -146 -62l62 96l22 2l34 16h10l20 20l-40 4l-34 -22l-16 42q20 16 54 48q-10 12 -18 28q26 36 33 42t51 22q6 52 32 204q-48 -22 -88 -38q-2 28 2 60l40 70l18 10h18 l28 30l-64 6l-16 -10q-18 22 -24 38q10 16 17 53t19 55h-34l2 12l150 78q122 62 508 170q18 -16 28 -24q170 40 342 72zM1100 1300l-40 6l-62 -44l38 2l34 18h10zM742 790l-42 4l-60 -42l40 2l32 16h12z" />
<glyph unicode="g" horiz-adv-x="994" d="M1226 956q-12 -58 -20 -118v-4l-14 -4l-34 -24l-12 -2l-18 -24l42 4l32 28q-10 -46 -14 -90l-138 -62q-84 -392 -94 -700q-26 -12 -74 -42v30q-32 -20 -94 -66l-6 106l-52 -124h-10q0 58 -2 176q-244 -84 -374 -84q-144 0 -232 84l10 76l-82 78l4 -58q-36 78 -36 182 q0 64 14 136q74 348 378 628q294 268 658 346l-20 -76l-66 -68l6 -32l-52 -40l-24 -6l-28 -42l86 10l24 26l8 -48l-82 -50l52 -70q-304 -120 -478 -352q-134 -178 -134 -280q0 -66 47 -105t119 -39q76 0 200 48q0 92 8 188q-2 -2 -268 -168q18 46 50 102l-44 30l6 80 q198 164 588 378l-4 -36q62 30 174 78zM916 1310l-44 -12l-36 -26l-12 -4l-16 -24l50 6zM766 1156l-32 -10l-24 -18l-10 -2l-10 -18l34 4zM864 198l-44 -12l-36 -26l-14 -4l-14 -24l48 6zM128 228l-48 44v-40l18 -28v-12l22 -10z" />
<glyph unicode="h" horiz-adv-x="940" d="M1282 1544q-160 -500 -208 -666q-112 -376 -170 -670l-92 -48q2 16 8 46l-24 -16q6 6 10 60l8 16l-12 32l-42 -56l6 -72l-66 -42q2 52 16 160q-34 -64 -96 -192h-6q22 154 70 460l-222 -80q-16 -88 -58 -254q-8 -14 -18 -40q-16 -76 -30 -190q-20 -6 -58 -22l-42 64 q-30 -32 -84 -96l-22 22q-28 -14 -44 -28q18 202 42 404q-14 -8 -38 -18q14 32 46 98q-26 14 -58 36q0 28 -4 82q54 36 84 54q46 314 108 608l184 68q6 -32 12 -60q22 22 68 64q30 10 92 28q-8 -26 -20 -78q30 4 58 12q-94 -282 -146 -472l198 76q52 280 126 570q10 2 18 2 q10 0 28 -6t28 -6q38 0 80 39t64 39q20 0 48 -12l-20 -28l12 -100l30 58l4 52l10 16v2q22 8 60 42t62 42zM1080 1298l-10 22l-30 -38l8 -68l22 40l2 34zM442 1178l-12 32l-44 -58l12 -100l30 58l4 52zM512 1062l-10 22l-28 -40l8 -66l20 38l4 34zM450 956l-6 12l-16 -22 l2 -40l14 22q0 14 6 28zM890 400l-10 20l-30 -38l6 -68l24 40v34zM228 106l-8 22l-30 -40l8 -70l20 40l4 36z" />
<glyph unicode="i" horiz-adv-x="480" d="M718 1294q-176 -558 -270 -994q-4 -22 -20 -66t-22 -66q-8 -58 -22 -172l-60 -24q-16 22 -42 68l-8 -10l2 28l6 12l-6 24l-30 -42l4 -52q-20 -20 -54 -62l-20 24l-44 -30q82 810 192 1326q60 24 94 36h4l10 -102l30 60l6 54l4 8l36 14l14 -62l68 66q58 20 90 32 q-12 -54 -20 -84q36 8 58 14zM496 1144l-10 24l-28 -42l4 -70l24 42l4 36zM426 1038l-4 14l-18 -24l6 -42q12 18 14 46z" />
<glyph unicode="j" horiz-adv-x="814" d="M1170 1434q-8 -28 -22 -128l-24 4l-68 -48l44 4l34 16h6l-14 -54l-36 -10l20 -38l-28 -54l-134 -28q-82 -354 -328 -1140l-8 6l-6 -28q-386 16 -656 186l58 46l18 76l66 42l10 -26l92 -30l-26 48l-42 24l-4 14h-4q-3 15 -3 40q0 13 1 28q2 4 4 12q148 -86 326 -134 q84 396 120 716q-178 -76 -388 -176l36 102l12 10l34 -4l98 64l-64 -2l-38 -18l-36 22q12 20 20 65t22 65l-14 52l426 168q238 98 456 158l8 -32q12 2 15 -9t9 -11q4 0 8 2zM1068 1376l-64 8l-94 -68l60 4l52 26l16 -2zM964 1252l-28 4l-42 -30l30 2l20 10h8zM384 1044 l-38 -2l-34 -14h-12l-20 -18l40 -8zM338 186l-16 36l-30 20l-4 10l-28 4l12 -44zM146 176l-20 24q-26 8 -32 16l-20 -2l14 -30z" />
<glyph unicode="k" horiz-adv-x="966" d="M1300 1180l-320 -342q-184 -188 -340 -324q204 -182 482 -332q-8 -30 -26 -88l-28 14l-6 -34l-14 24l-104 14l38 -42l50 -18l8 -12l14 2l-8 -50q-8 2 -14 2t-22 -4q-12 -2 -26 2l38 -82l-324 144q-184 84 -314 162q-10 -20 -18 -60q-14 -68 -22 -160l-60 -24 q-16 22 -42 68l-8 -10l2 28l6 12l-8 24l-28 -42l4 -52q-20 -20 -54 -62l-20 24q-12 -6 -46 -30q80 792 194 1326q60 24 94 36h4l8 -102l32 60l6 54l4 8l36 14q4 -22 14 -62l68 66q58 20 90 32q-4 -18 14 -26t14 -24h4l-4 -20h10q-104 -318 -150 -494q200 236 508 644 q18 -26 32 -44l58 68q14 -34 42 -76l-8 -86q20 10 62 34q12 -30 42 -82l-52 -24l-52 -104l56 38l34 50l20 10l2 12zM1090 1170l-48 -24l-38 -76l40 30l26 34l12 8zM456 1144l-10 24l-30 -42l6 -70l24 42l2 36zM386 1038l-4 14l-18 -24l6 -42q12 18 14 46zM940 158l-18 36 l-72 8l24 -28l32 -10l10 -8z" />
<glyph unicode="l" horiz-adv-x="620" d="M900 442l-36 -76l-22 4l-68 -48l44 2l36 18h2l-18 -50q-8 -2 -10 -8q2 10 4 -16l-8 -4q0 -8 -13 -10t-9 -6l-18 -40q-318 -106 -688 -310q-2 20 -4 68l-8 -18l10 76l22 2l44 22h14l22 24l-52 8l-48 -34q126 814 232 1222q10 2 18 2q10 0 28 -6t30 -6q10 0 24 4l2 2 l-12 -16l12 -70l20 42l2 36l6 12l-4 10l44 36q32 24 46 24q16 0 54 -16l-22 -32l14 -94l28 56l2 48l8 16l-2 6q24 8 62 43t62 43l-174 -544q-94 -312 -148 -546q148 66 368 138l-2 -4q0 -4 8 -4q12 0 32 6l-86 -60l60 4l48 24h18l18 18zM498 1122l-12 22l-28 -40l10 -70 l22 40l2 36zM714 332l-36 4l-52 -38l34 2l28 14h10zM122 24h-2l-4 -12z" />
<glyph unicode="m" horiz-adv-x="1322" d="M1598 1438q-140 -400 -254 -1180q-8 -2 -14 -2q-8 0 -20 4t-20 4l8 20l-8 36l6 12l-16 20l-24 -46l18 -46l-26 -28l-32 -8l-10 -52l-128 -50q-1 58 -1 112q0 328 21 546q-204 -326 -308 -608l-48 4l-18 -86q-30 -12 -92 -32l-92 188q-48 106 -80 196q-64 -162 -126 -392 q-38 -14 -112 -46q-8 36 -10 86q-26 -20 -80 -56q-4 -34 -8 -78q-40 6 -114 14q112 610 338 1144q58 24 92 34q16 30 44 70l100 10l-26 -36l12 -98l30 56l4 52l10 16l-4 12q100 8 178 16l-42 -84l-4 -24q20 2 66 14l-82 -148q-18 -146 -18 -244q0 -124 28 -220 q66 294 278 726q32 -4 80 -16l-26 -20l-16 -76l34 34l16 38l10 10v10l50 -14q8 34 26 104q108 22 144 22q14 0 23 -19t29 -19q18 0 99 55t115 63zM1214 384l-6 36l4 12l-16 20l-22 -48l26 -66zM508 1038v28l-44 -34l-16 -78l34 36l16 38zM402 956v18l-28 -20l-12 -50l24 22 l8 24z" />
<glyph unicode="n" horiz-adv-x="1038" d="M1316 1266q-224 -598 -302 -1104q-28 -16 -82 -44q-4 12 -8 50l10 18l4 52l10 16l-14 32l-42 -58l4 -46l-34 -36q0 -28 -4 -78l-30 4l-4 -8l-8 10l-44 6l4 42q-232 274 -326 450q-42 -208 -68 -514q-54 -34 -82 -54l-18 90q-2 -4 -54 -64q0 -42 2 -80q-58 4 -88 8 q14 616 126 1214l68 38q0 2 24 76q44 8 134 26l-26 -36l10 -96l30 56l6 50l8 16l-6 14q24 4 76 16q-12 -42 -28 -120q16 8 54 22l-2 -8l40 64q82 -458 180 -662q16 96 54 286q28 130 78 314q40 18 68 34q12 24 30 70q32 2 230 28q-24 -68 -34 -110q24 4 54 16zM430 1128 l-8 22l-30 -38l8 -70l20 40l4 36zM874 340l-10 22l-30 -40l8 -68l22 40l2 36z" />
<glyph unicode="o" d="M1384 884q-70 -324 -384 -626q-328 -316 -644 -316q-122 0 -216 58l-6 58l-84 46l12 -36q-78 98 -78 254q0 236 164 496q158 250 398 416q252 174 486 174q144 0 236 -76l24 -88l-26 2l-6 50l-80 48l16 -54l32 -32l4 -10l-24 2l-18 -82l-16 -8l-4 30l-84 46l18 -52 l34 -32v-6l-52 -24l-64 -74l84 50l96 6l4 -12l24 -20l2 -10l22 -6l-4 42l-28 14v30l50 12l-12 38l90 -38l26 22q22 -72 22 -156q0 -66 -14 -136zM1058 1136l-2 40l-56 30l10 -34l24 -22l2 -10zM1180 990l-4 30l-40 22l10 -26l16 -14v-8zM1048 806q0 92 -50 149t-146 57 q-192 0 -379 -198t-187 -392q0 -90 51 -147t147 -57q192 0 378 197t186 391zM268 204l-2 36l-48 26l10 -30l20 -18l2 -10zM258 64l-2 36l-48 26l10 -30l20 -18l2 -8zM178 110l-6 62l-84 46l16 -54l36 -30l2 -16z" />
<glyph unicode="p" horiz-adv-x="878" d="M1218 1112q-50 -236 -290 -440q-168 -142 -466 -292l-10 -40l-32 -104q-16 -76 -30 -190q-16 -10 -58 -28q-16 20 -42 60l-44 -50l-18 82l-24 -60v-50l-8 -14l6 -10l-22 18l-46 -32q56 584 120 952l-154 -98v82l40 -2l92 72l-62 -8l-50 -28l-14 -2l-8 -8l-2 40q6 0 12 6 q0 2 -9 10t-9 14l8 6q-2 2 -2 4q2 4 40 23t38 27q2 4 0 6q-4 10 -26 12t-26 12l10 6q-30 -8 -44 -8q-16 0 -2 8q-8 -6 -10 -6l-2 2q2 4 16 22t16 24q-2 2 -10 0l8 32q4 2 48 30q170 108 358 174q206 72 372 72q148 0 240 -58q104 -68 104 -194q0 -34 -8 -74zM866 1026 q0 78 -106 78q-44 0 -110 -16l-110 -378q326 180 326 316zM340 1170l-62 -8l-50 -28h-18l-28 -32l66 -4zM332 1042l-32 -4q-14 -8 -36 -16l-16 -16l34 -2zM260 272l-12 54l-16 -34l2 -28l-6 -10l12 -16zM318 172l-18 68l-18 -42v-36l-4 -12l12 -20z" />
<glyph unicode="q" horiz-adv-x="1152" d="M1052 296l68 -120l-46 -14q30 -68 58 -148q-54 -6 -160 -30l-2 14l-20 22v12l-28 10l-6 -42l30 -20l-120 -24l-46 122q-228 -132 -420 -132q-120 0 -208 54l-6 58l-84 46l10 -36q-82 104 -82 256q0 230 168 490q160 250 400 418q254 176 484 176q142 0 238 -76l24 -88 l-26 2l-6 50l-84 48l18 -54l34 -32l2 -10l-22 2l-18 -82l-18 -8l-2 30l-84 46l16 -52l36 -32v-6l-52 -24l-66 -74l84 50l98 6l4 -12l24 -20l2 -10l22 -6l-4 42l-28 14l-2 30l52 12l-12 38l90 -38l26 22q22 -70 22 -152q0 -186 -112 -396q-96 -178 -246 -332zM1070 1136 l-2 40l-56 30l10 -34l24 -22l2 -10zM1192 990l-4 30l-40 22l10 -26l14 -14l2 -8zM1060 794q0 96 -52 158t-148 62q-170 0 -346 -170q-166 -162 -204 -338q-8 -42 -8 -82q0 -92 44 -146q50 -64 142 -64q88 0 200 58q-76 126 -202 280q50 0 124 -8l56 58q54 10 108 30 q80 -74 150 -156q136 160 136 318zM280 204l-4 36l-46 26l10 -30l18 -18l2 -10zM270 64l-4 36l-48 26q6 -34 30 -48l2 -8zM188 110l-4 62l-84 46l16 -54l36 -30l2 -16z" />
<glyph unicode="r" horiz-adv-x="948" d="M1232 1114q-72 -336 -538 -616q242 -136 486 -226l-12 -90l-32 10q-5 -47 -5 -79q0 -24 3 -39q-14 0 -118 14l42 -46l52 -18l12 -14h2v-20l-352 102q-196 60 -342 118q-10 -54 -24 -164q-20 -10 -60 -28q-28 40 -44 60l-40 -50l-22 82l-24 -60l2 -50l-8 -14l6 -10l-22 18 q-16 -10 -44 -32q54 584 120 952q-84 -50 -154 -98q0 28 -2 82l42 -2l92 72l-62 -8l-48 -28l-18 -2l-6 -8l-2 40q4 0 10 6q0 2 -9 10t-9 14l10 6q-2 2 -2 6q2 4 39 22t37 24q2 4 0 8q-2 12 -25 13t-25 11l8 6q-30 -8 -44 -8q-16 0 -4 8q-2 -2 -8 -6v4l6 8q12 14 22 32 q2 6 -6 4l6 32q6 2 48 30q168 108 358 174q204 72 372 72q148 0 240 -58q104 -66 104 -192q0 -36 -8 -74zM880 1024q0 80 -106 80q-44 0 -110 -16q-42 -126 -110 -378q326 180 326 314zM354 1170l-62 -8l-50 -28h-18l-26 -32l62 -4zM344 1042l-30 -4q-26 -16 -38 -16 l-12 -16l32 -2zM942 112l-18 32l-64 8l22 -24l30 -10l6 -8zM276 272l-16 54l-12 -34v-28l-4 -10l10 -16zM330 172l-16 68l-16 -42v-36l-6 -12l14 -20z" />
<glyph unicode="s" horiz-adv-x="718" d="M1046 1178q-446 -238 -480 -396q-2 -7 -2 -14q0 -44 65 -80l149 -82q82 -62 82 -160q0 -28 -8 -62q-50 -238 -462 -510q-12 6 -12 14t-2 15t-12 9q-16 4 -48 4l-4 44l18 2l76 62l-44 -12l-40 -26l-12 -2l-8 -10l-94 6q286 174 306 272q2 8 2 16q0 40 -50 74l-102 52 q-26 14 -36 46q-8 24 -28 24q-18 0 -56 -10q-84 56 -112 86q-56 58 -56 126q0 20 4 42q46 208 380 452q254 184 538 306q2 -6 12 -30q6 -16 4 -30q-4 -16 -72 -116l88 -16l-28 -42l-22 -4l-38 -28l-12 -2l-24 -30l38 -4l46 44zM846 1206l-34 -6l-30 -18h-8l-20 -20h32z M734 1120l-22 -4l-22 -14h-6l-14 -14h22zM552 122q-16 -14 -50 -34l-10 -16l26 8zM472 18l-30 -8l-24 -16l-8 -2l-14 -18l28 4z" />
<glyph unicode="t" horiz-adv-x="656" d="M1042 1434q-10 -52 -32 -156l-4 -14q-2 -16 -8 -36l-38 -10q8 -20 22 -38l-28 -54q-92 -16 -208 -46q-106 -322 -198 -750q-4 -24 -21 -68t-21 -66l-20 -158q-38 -20 -60 -28q-12 12 -26 36l2 22l10 16l-14 32l-44 -58l4 -20l-62 -72l-22 18q-16 -10 -44 -30 q62 648 126 988l-306 -140q28 58 38 102l22 20l34 2l52 26h18l28 30l-64 8l-50 -36q-16 12 -34 22q12 20 20 65t22 65q-6 18 -14 52q72 32 438 174q262 102 442 152l6 -32h10q6 0 8 -11t16 -7zM382 1048l-26 4l-42 -30l28 2l20 12h8zM296 1092l-44 6l-68 -48l44 4l36 18 l12 -2zM410 322l-8 18l-24 -34l6 -56l18 32l2 30zM352 198l-8 24l-34 -44l8 -74l24 44l4 38z" />
<glyph unicode="u" horiz-adv-x="1012" d="M1284 1512q-220 -886 -278 -1340q-42 -28 -88 -54l2 46l-44 -36l2 28l8 12l-12 24l-30 -44l2 -40l-40 -30v31q0 51 4 127q-38 -84 -72 -168h-14l16 198q-164 -84 -358 -214q-8 -30 -8 -56q-20 -6 -60 -22l-14 24l-88 -60l8 40l-32 -36l-22 22l-46 -28q74 762 186 1288 q38 12 78 28l-2 -2l6 -100l34 56l6 52l10 14l52 20l14 -60q22 22 68 64l90 30q-10 -52 -20 -80q30 4 58 12q-174 -546 -238 -840l304 176q20 304 100 748q12 6 24 6q8 0 24 -5t24 -5q32 0 80 46t78 46l-30 -36l6 -102l32 58l8 50l10 16l-2 6q12 -6 24 -6q28 0 70 40 q52 48 70 56zM448 1122l-8 18l-24 -34l8 -56l16 32l2 30zM920 388l-8 18l-24 -32l8 -58l16 34l2 28zM972 298l-10 24l-32 -42l8 -74l22 42l4 38z" />
<glyph unicode="v" horiz-adv-x="850" d="M1338 1334q-340 -476 -516 -762q-58 -100 -184 -294q-30 -36 -60 -100l-50 -104h-58q-2 54 -6 92l-10 -6q-6 -48 -8 -96l-86 -58v44l-112 -88q-6 112 -6 154l-62 -170l-12 -2q10 486 16 630q14 356 52 636q14 6 28 6q8 0 22 -2t22 -2q36 0 80 49t76 49q6 0 14 -2l-20 -36 l24 -72l14 46l-4 38l8 14l-2 2q8 -2 14 -2q26 0 68 44q50 52 68 60l-84 -436q-46 -250 -68 -434q260 528 498 930q18 0 56 -2h56l-24 -18l-26 -118l54 56l24 56l14 16v8h30q-8 -28 -16 -72l84 42q60 -6 88 -6l-50 -80zM1154 1280v24l-40 -30l-16 -70l30 32l16 34zM1048 1128 v16l-28 -20l-12 -48l24 22l8 24zM420 1138l-14 22l-28 -48l24 -72l16 46l-4 38zM330 184l-16 22l-26 -48l20 -74l18 48l-4 38z" />
<glyph unicode="w" horiz-adv-x="1400" d="M1832 1412q-246 -386 -584 -1186l-14 2q8 -26 24 -74q-62 -6 -154 -32l-154 -42l2 10l-10 46l8 16l-20 26l-28 -60l16 -44l-56 -10q-12 154 -12 278q0 244 42 448q-98 -138 -170 -338q-20 -60 -104 -352q-12 16 -114 42v-42l-40 -28l-4 54l6 16l-18 26l-34 -60l22 -56 l-34 -22q-6 10 -34 74l-66 -74q4 -30 14 -70q-50 -6 -120 -20q-24 248 -24 484q0 328 46 644l84 56q4 10 24 74q6 2 302 108l-8 -42l-2 6l-44 -56l10 -100l34 58v26l58 28q-72 -262 -102 -404l-12 -62q112 164 432 514l78 -32l-18 -86l48 4q-4 -61 -4 -124q0 -169 28 -346 q146 436 306 732q54 -4 136 -18q12 -4 16 -29t18 -25q38 0 108 31t104 31h18zM1562 1330v36l-58 -46l-20 -104l44 48l22 52zM522 1058v28l-42 -34l-16 -76l34 36l14 36zM418 978v16l-26 -20l-14 -50l24 22l8 26zM1022 304l-6 36l4 12l-14 20l-22 -46l26 -68z" />
<glyph unicode="x" horiz-adv-x="996" d="M1486 1334q-30 -26 -102 -96q20 -12 48 -20l-590 -526l-70 -64q74 -230 152 -402l-22 -26l-4 16l-24 24l-4 10l-28 6l6 -46l44 -24l-32 -40l-16 34q-10 -18 -78 -112l-64 108q0 -82 4 -146l-14 -8l-176 370q-72 -74 -174 -154q-52 -42 -120 -116l-114 -124q-40 4 -60 8 q18 48 40 96l18 12l44 60l22 12l14 48l-84 -36l-52 -98l-116 -54l12 44q-20 -4 -56 -8l504 568q-92 192 -192 488q16 14 49 24t49 25t35 54t37 53q6 6 62 22v-12l74 -72l-4 64l-30 44l2 6q16 36 62 104q70 -284 134 -508l482 492q58 -12 96 -16l2 -2l-26 -12l-52 -98l56 36 l32 44l16 10l6 16l60 -10q-32 -44 -60 -88l114 40q42 -12 88 -20zM1214 1272l-48 -22l-40 -76l44 28l24 34l12 8zM446 1044l-4 48l-20 30v14l-24 12l-8 -52zM786 264l-14 40l-26 24l-2 12l-26 6l6 -48z" />
<glyph unicode="y" horiz-adv-x="852" d="M1428 1412l-548 -630q-214 -254 -612 -804h-50q-36 -2 -52 -2l30 44l-40 -6l20 12l34 46l18 8l10 38l-64 -28l-44 -80q-24 -4 -74 -10q64 108 102 166l-158 -138l-12 8l424 628q-174 290 -256 462q26 32 50 68l-6 -38l74 -72l-2 64l-30 42l2 20l-20 8l48 62 q18 -18 54 -50q4 44 16 94q32 34 60 70q28 -54 40 -84l42 38q60 -162 148 -360q120 174 374 498q20 -4 40 -33t46 -29q-4 0 94 22l-26 -10l-68 -130l72 46l44 60l22 12l4 16q10 -18 19 -38t35 -20q20 0 64 16t66 16zM1052 1324l-50 -22l-40 -76l42 28l28 34l12 8zM972 1144 l-50 -22l-40 -76l44 28l26 34l10 6zM326 266l-50 -22l-38 -76l42 28l24 34l14 8z" />
<glyph unicode="z" horiz-adv-x="938" d="M1274 1378q-14 -20 -26 -67t-26 -67l-22 6l-52 -30l34 -4l28 10l-40 -54q22 0 60 4l-16 -28l10 -4q-20 -18 -46 -60h-8l-4 -4q14 -8 48 -24q-372 -374 -572 -608l-98 -122q-60 -72 -108 -112q194 70 494 132l-26 -52l58 6l-10 -38l-34 10l-92 -52l60 -6l48 18l6 -2 l-8 -32l-28 -6l16 -34l-24 -42q-294 -34 -728 -204q8 28 28 82q28 18 42 32q-12 8 -36 26l26 38l-12 44l-76 -30l-6 36l-48 2l300 442q172 246 318 434q-84 -20 -252 -66l-244 -72l12 60q18 26 56 72l-6 8h12q14 0 38 10l10 -2l18 18l-38 12l-44 -26q-6 18 -20 52 q12 12 21 52t17 54l-32 6l2 10q252 108 664 170l22 -28q112 12 334 30zM496 1122l-58 18l-88 -50l56 -8l48 18l18 -2zM756 178l-36 10l-54 -32l34 -2l28 10l10 -2z" />
<glyph unicode="{" horiz-adv-x="836" d="M1166 1754l-54 -138h-58l40 -76l-24 -66l-10 8l-96 -22l44 -18l44 2l4 -2l-32 -86q-30 4 -58 4q-112 0 -196 -56q-90 -60 -114 -168q-6 -30 -6 -60q0 -110 76 -200l240 -14l4 -46l-10 6l-104 -22l50 -22l50 4l12 -8l4 2l6 -36l-68 -6l-66 -56l-10 -82l20 -18h-98 q-208 -140 -252 -346q-6 -30 -6 -56q0 -158 230 -188l-14 -114l-54 -6l18 -66l-2 -2l-12 22l-94 12l34 -36l42 -14l8 -12h6l-16 -26q-192 16 -324 108q-150 106 -150 276q0 40 8 84q42 192 258 378h-242l8 48l42 14l14 32l16 -8l34 2l10 -4l26 10l-32 22l-50 -10l20 42h-66 l14 118q32 -10 78 -10q60 0 132 14q-116 128 -116 290q0 44 10 90q48 230 280 380q212 136 450 136q44 0 102 -4zM1000 1526l-30 22l-72 -16l32 -14l38 2l8 -6zM616 -106l-20 32l-68 10l24 -26l30 -10l6 -10z" />
<glyph unicode="|" horiz-adv-x="476" d="M760 1496q-208 -704 -316 -1212q-8 -42 -30 -126q-8 -18 -20 -52q-18 -88 -44 -252l-56 -28q-22 48 -38 88l-46 -64l-2 26l4 12l-14 20l-24 -46l16 -42l-26 -36l-22 28l-46 -36q126 1006 268 1676q36 18 110 50l-18 -34l32 -86l18 56l-6 48l6 16l-8 12l56 26l6 -78l74 84 l92 38l-24 -106zM536 1358l-14 18l-22 -44l24 -66l12 44l-4 34zM262 -8l-4 32l4 14l-16 18l-22 -44l22 -64z" />
<glyph unicode="}" horiz-adv-x="820" d="M1030 1244q-44 -212 -266 -382q64 -14 124 -14q48 0 82 10l-34 -118h-66v-42l-46 10l-40 -22l22 -10l10 4l34 -2l20 8l2 -32l34 -14l-12 -48h-242q104 -142 104 -292q0 -44 -8 -86q-44 -206 -258 -338q-182 -112 -406 -130l-4 26h6l12 12l50 14l46 36l-98 -12l-20 -22 l-2 2l46 66l-50 6l34 114q280 36 324 244q10 44 10 88q0 150 -114 258h-98l28 18l26 82l-42 56l-64 6l18 36l4 -2l16 8l50 -4l58 22l-96 22l-10 -6l24 46l244 14q150 118 180 258q6 28 6 54q0 86 -68 130q-58 42 -156 42q-28 0 -56 -4l4 86l2 2l46 -2l52 18l-84 22l-14 -8 l4 66l72 76h-58v138q60 4 106 4q210 0 360 -110q162 -120 162 -310q0 -46 -10 -94zM590 1532l-64 16l-42 -22l20 -12l12 6l34 -2zM280 -64l-72 -10l-32 -32l24 -4l10 10l34 10z" />
<glyph unicode="~" horiz-adv-x="884" d="M1056 776l-38 -26l12 -32q-104 -110 -156 -150q-102 -82 -186 -82q-58 0 -144 61t-124 61q-66 0 -186 -98l-2 62l22 -2l78 54l-50 -4l-42 -20h-6l24 40h-44l-22 22l28 48l-96 -12l154 124q106 80 166 80t146 -73t118 -73q70 0 204 176l60 -26l-14 -90l-8 -4l-16 2 l-32 -28l60 -12l66 40zM934 744l-34 -2l-30 -14h-10l-18 -18l36 -4zM334 702l-28 -2l-20 -12h-8l-12 -12l28 -2z" />
<glyph unicode="&#xa9;" horiz-adv-x="1516" d="M1750 784q-80 -370 -425 -651t-715 -281q-186 0 -328 82l16 2l-42 66l-76 6q-160 152 -160 408q0 82 18 164q78 366 422 646t712 280q108 0 246 -44q168 -50 182 -122h-80l-10 -50l-106 38l70 -100l-50 -40h102l-28 56h60l6 30l58 -8l38 16q106 -150 106 -344 q0 -76 -16 -154zM1640 1180l-18 30l-64 4l24 -22l30 -8l6 -8zM1400 1248l-20 34l-72 8l26 -28l34 -10l6 -8zM1402 1180l-16 26l-58 6l20 -22l26 -8l6 -6zM1404 672q12 52 12 104q0 160 -102 267t-268 107q-242 0 -464 -189t-274 -433q-12 -52 -12 -104q0 -160 101 -265 t269 -105q242 0 465 188t273 430zM254 132l-6 22l-34 16l10 -20l14 -10l2 -6zM266 44l-10 36l-56 22l16 -30l22 -16l4 -10zM1076 1092l-6 -48l-30 -46l6 -30h-8l-18 -14h-8l-8 -16h30l16 16l4 -22l-28 -32l18 -58q-182 -52 -274 -188q-66 -96 -66 -158q0 -54 42 -87t100 -33 t148 36l-8 -54l16 -20h-8l-26 -18h-8l-12 -20h38l26 28l18 -24l-6 -36l24 -22q-184 -48 -298 -48q-96 0 -166 72q-64 64 -82 160l22 32l-20 96l-6 -14q18 182 168 353t410 195zM1018 992l-34 -6l-26 -18l-10 -2l-10 -18h38zM942 904l-18 -4l-12 -10h-6l-8 -10h22zM926 342 l-22 -4l-16 -12l-6 -2l-6 -10l24 -2zM566 404l-12 52l-12 -26l2 -28l-4 -8l6 -18z" />
<glyph unicode="&#xaa;" horiz-adv-x="894" d="M1100 822l-82 -248l-42 -12q-6 -106 -6 -266v-84q-10 -4 -20 -4q-6 0 -34 6q-22 2 -36 -2l8 26l-4 30l6 14l-14 14l-24 -46l16 -44q-16 -8 -26 -26l-32 -8q0 -8 -2 -52q-42 -14 -124 -46q-12 208 -18 390q-90 -28 -280 -114q-76 -202 -114 -326q-32 -14 -90 -46 q4 18 12 44q-94 -60 -112 -60q-19 0 -19 21q0 13 7 33q-26 -34 -74 -106h-4q22 72 78 328q46 204 92 326q6 16 25 30t25 46q6 20 7 62t5 62q26 122 164 486q48 16 140 44q38 0 118 16h2l-42 -44l-10 -102l42 58l18 54l12 16l-4 26q22 20 78 54l86 30q-22 -48 -40 -96 q72 20 64 20q10 0 16 -9t10 -9q6 0 10 2q14 16 50 44q46 32 136 72q-60 -306 -84 -636q2 0 110 32zM898 1264l-12 14l-26 -46l20 -56l18 44l-4 32zM544 1120l-4 18l-30 -32l-6 -54l24 30l8 30zM674 1048q-66 -140 -178 -420q4 2 168 76q0 192 10 344z" />
<glyph unicode="&#xad;" horiz-adv-x="758" d="M886 872l-14 -88l-78 -72l38 -32v-8l-102 -56l60 -4l42 16l-2 -62l-666 -100l-4 36l92 74l-80 22l48 18l16 -2l34 28l-58 14l-52 -28v42l50 20l-40 26l12 32zM792 774l-42 12l-76 -42l44 -2l38 14h12zM380 626l-32 8l-54 -30l32 -2l28 12l8 -2z" />
<glyph unicode="&#xae;" horiz-adv-x="1516" d="M1750 784q-80 -370 -425 -651t-715 -281q-186 0 -328 82l16 2l-42 66l-76 6q-160 152 -160 408q0 82 18 164q78 366 422 646t712 280q108 0 246 -44q168 -50 182 -122h-80l-10 -50l-106 38l70 -100l-50 -40h102l-28 56h60l6 30l58 -8l38 16q106 -150 106 -344 q0 -76 -16 -154zM1640 1180l-18 30l-64 4l24 -22l30 -8l6 -8zM1400 1248l-20 34l-72 8l26 -28l34 -10l6 -8zM1402 1180l-16 26l-58 6l20 -22l26 -8l6 -6zM1042 770q14 64 -62 64q-28 0 -66 -10q-26 -76 -68 -228q180 98 196 174zM726 874l-38 -4l-30 -18h-12l-16 -18l38 -4z M720 796l-18 -2q-16 -10 -24 -10l-8 -8l20 -2zM1416 776q0 160 -102 267t-268 107q-242 0 -464 -189t-274 -433q-12 -52 -12 -104q0 -160 101 -265t269 -105q204 0 404 140q-184 54 -298 100q-6 -34 -16 -100l-36 -18l-26 38l-24 -32l-14 50l-14 -36v-30l-4 -8l4 -6l-14 10 l-26 -20q32 354 72 578q-50 -30 -92 -60q0 16 -2 50l26 -2l54 44l-36 -4l-30 -18h-10l-4 -6l-2 24q4 0 6 4q2 0 -4 6t-6 8l6 4v4q0 2 22 13t24 15v4q-2 8 -16 8t-16 8l6 2q-18 -4 -28 -4q-6 0 -4 4l-2 -2v2l4 4q6 8 12 20q2 8 -4 2l4 20q4 2 30 18q232 150 442 150 q208 0 208 -154q0 -20 -6 -44q-42 -204 -326 -372q146 -82 292 -136q194 214 194 444zM1080 234l-10 20l-38 4l14 -14l18 -6l4 -6zM678 330l-10 34l-8 -22v-16l-2 -6l6 -10zM710 270l-8 42l-10 -26v-22l-4 -8l8 -12zM254 132l-6 22l-34 16l10 -20l14 -10l2 -6zM266 44 l-10 36l-56 22l16 -30l22 -16l4 -10z" />
<glyph unicode="&#xb2;" horiz-adv-x="786" d="M1004 1000q-24 -118 -142 -254q-64 -74 -240 -234q-160 -144 -220 -224q122 32 366 88q-10 -16 -24 -50q22 0 56 4q-20 -56 -30 -102l-28 -6l16 -34l-22 -42q-296 -34 -730 -204l28 80l42 34q-12 8 -36 26l8 12l20 -2l48 18l16 -4l28 26l-60 18l-36 -22l-4 20l-8 2 q16 154 156 312l262 250q146 140 168 248q12 56 -66 56q-72 0 -240 -88q-14 20 -15 71t-13 71l60 68q-14 0 -44 -2h-44l-2 4h6l50 26h18l28 30l-62 8l-50 -34l-10 34l22 34q262 134 438 134q140 0 221 -75t81 -201q0 -46 -12 -96zM568 1244l-26 4l-42 -28l26 2l22 10h8z M512 1170l-44 6l-68 -48l42 2l36 18h14zM250 94l-36 10l-52 -30l32 -4l32 10l8 -2z" />
<glyph unicode="&#xb3;" horiz-adv-x="798" d="M974 1162q8 -206 -210 -372q176 -58 176 -206q0 -32 -8 -68q-44 -210 -226 -365t-390 -155q-186 0 -258 192l64 86l10 -12l38 -16l8 -14l34 4l-20 56l-50 8l46 60q92 -124 198 -124q66 0 138 40q80 46 94 110q2 14 2 28q0 124 -198 124q-64 0 -152 -14l6 124l50 28h18 l28 32l-62 4l-30 -22l40 100l22 4l10 24q78 18 150 50q108 46 118 96q10 46 -68 46q-98 0 -262 -78l6 26q32 42 50 68l-72 -6l10 40q6 12 46 64l-52 2l42 24l18 2l30 30l-64 4l-52 -42l-16 92q266 164 440 164q198 0 268 -120l-16 -50zM484 1178l-44 4l-70 -52l44 6l38 20 h12zM534 706l-18 16l-46 -10l20 -10h24l4 -4zM460 660l-42 12l-74 -38l42 -4l38 12l12 -2zM180 158l-12 34l-54 8l16 -26l24 -10l6 -8z" />
<glyph unicode="&#xb9;" horiz-adv-x="760" d="M918 1290q-10 -24 -22 -66l-42 6l-96 -68l62 4l52 26h14q-132 -398 -222 -816q-6 -28 -18 -66l216 46q-14 -28 -24 -52l58 6l-12 -38l-34 10l-90 -52l58 -6l48 18l10 -2l-12 -32l-28 -6q6 -12 18 -34q-10 -16 -24 -42q-110 -12 -142 -16q-82 -14 -142 -36l-2 2 q-134 -32 -444 -154l28 80l44 34l-38 26q10 16 26 38q-6 26 -12 44l224 82q44 454 94 726l-262 -120q10 46 38 102l50 46q-24 12 -44 28q10 48 42 128q-10 26 -16 52q126 54 540 212l6 -66l60 20q-12 -40 -20 -78q36 8 58 14zM784 1236l-44 6l-68 -46l44 2l36 18h12z M652 1142l-26 4l-42 -30l26 2l22 10h8zM688 188l-36 10l-54 -32l34 -2l28 10l12 -2z" />
<glyph unicode="&#xba;" d="M1384 884q-70 -324 -384 -626q-328 -316 -644 -316q-122 0 -216 58l-6 58l-84 46l12 -36q-78 98 -78 254q0 236 164 496q158 250 398 416q252 174 486 174q144 0 236 -76l24 -88l-26 2l-6 50l-80 48l16 -54l32 -32l4 -10l-24 2l-18 -82l-16 -8l-4 30l-84 46l18 -52 l34 -32v-6l-52 -24l-64 -74l84 50l96 6l4 -12l24 -20l2 -10l22 -6l-4 42l-28 14v30l50 12l-12 38l90 -38l26 22q22 -72 22 -156q0 -66 -14 -136zM1058 1136l-2 40l-56 30l10 -34l24 -22l2 -10zM1180 990l-4 30l-40 22l10 -26l16 -14v-8zM1048 806q0 92 -50 149t-146 57 q-192 0 -379 -198t-187 -392q0 -90 51 -147t147 -57q192 0 378 197t186 391zM268 204l-2 36l-48 26l10 -30l20 -18l2 -10zM258 64l-2 36l-48 26l10 -30l20 -18l2 -8zM178 110l-6 62l-84 46l16 -54l36 -30l2 -16z" />
<glyph unicode="&#xc0;" horiz-adv-x="856" d="M1292 1730l-36 -30l-2 2l-60 26l16 -32l16 -12l-28 -12l-36 -40l-2 4l-82 34l22 -44l36 -24l-46 -54l-354 358l82 50l56 -2l28 68l16 14l24 -18l4 -10l24 -2l-10 38l-20 8l90 68zM954 1948l-8 26l-42 20l10 -24l18 -12l4 -8zM1076 768q-6 -20 -20 -62q-6 -14 -28 -30 t-26 -38q-2 -8 6 -25t6 -31q-8 -20 -20 -62l-28 -8q-4 -94 -4 -183q0 -60 2 -117l-28 -8q-30 -46 -38 -56q-22 -26 -54 -42q4 -4 -2 -6q-8 0 -21 12t-19 12q-4 -2 -2 -4q-42 -14 -124 -46q-12 160 -16 342q-110 -38 -304 -122q-50 -136 -92 -270q-4 -2 -8 -2q-8 0 -15 14 t-13 14q-14 0 -29 -33t-25 -39q0 4 -2 4q-4 0 -36 -23t-36 -25q22 22 34 76l14 16l-8 32l-54 -58l-8 -76q-20 -10 -34 -10q-16 0 -17 20t-3 20q-8 0 -32 -42h-4q42 148 82 336q88 420 310 1002l140 44q16 6 74 44q38 24 84 24q34 0 142 40q-22 -48 -40 -96q22 6 64 20 q12 14 44 34q4 2 16 6l-28 -50l32 -90l28 68l-6 52l8 18l-8 10q44 20 136 52q-64 -310 -86 -686zM874 1180l-12 16l-26 -46l20 -56l18 42l-4 32zM666 1048q-140 -314 -202 -478q106 54 192 88q0 194 10 390zM184 256l-2 14l-26 -26l-6 -48l20 28l6 24zM230 178l-4 24 l-38 -42l-6 -70q34 40 40 78z" />
<glyph unicode="&#xc2;" horiz-adv-x="856" d="M1472 1668l-98 -62l-34 30l-12 -58l-64 -30l-118 186l-226 -164h-66l20 34l12 6l28 32l14 6l12 30l-50 -18l-26 -40l-34 -6l-2 34l-50 -42l-32 26l336 364l108 36l24 -96l22 70l54 8zM1008 1792l-50 -18l-48 -76l44 26l28 32l14 6zM1076 768q-6 -20 -20 -62 q-6 -14 -28 -30t-26 -38q-2 -8 6 -25t6 -31q-8 -20 -20 -62l-28 -8q-4 -94 -4 -183q0 -60 2 -117l-28 -8q-30 -46 -38 -56q-22 -26 -54 -42q4 -4 -2 -6q-8 0 -21 12t-19 12q-4 -2 -2 -4q-42 -14 -124 -46q-12 160 -16 342q-110 -38 -304 -122q-50 -136 -92 -270q-4 -2 -8 -2 q-8 0 -15 14t-13 14q-14 0 -29 -33t-25 -39q0 4 -2 4q-4 0 -36 -23t-36 -25q22 22 34 76l14 16l-8 32l-54 -58l-8 -76q-20 -10 -34 -10q-16 0 -17 20t-3 20q-8 0 -32 -42h-4q42 148 82 336q88 420 310 1002l140 44q16 6 74 44q38 24 84 24q34 0 142 40q-22 -48 -40 -96 q22 6 64 20q12 14 44 34q4 2 16 6l-28 -50l32 -90l28 68l-6 52l8 18l-8 10q44 20 136 52q-64 -310 -86 -686zM874 1180l-12 16l-26 -46l20 -56l18 42l-4 32zM666 1048q-140 -314 -202 -478q106 54 192 88q0 194 10 390zM184 256l-2 14l-26 -26l-6 -48l20 28l6 24zM230 178 l-4 24l-38 -42l-6 -70q34 40 40 78z" />
<glyph unicode="&#xc3;" horiz-adv-x="856" d="M1604 1838l-38 -26l12 -32q-104 -110 -156 -150q-102 -82 -186 -82q-58 0 -144 61t-124 61q-66 0 -186 -98l-2 62l22 -2l78 54l-50 -4l-42 -20h-6l24 40h-44l-22 22l28 48l-96 -12l154 124q106 80 166 80t146 -73t118 -73q70 0 204 176l60 -26l-14 -90l-8 -4l-16 2 l-32 -28l60 -12l66 40zM1482 1806l-34 -2l-30 -14h-10l-18 -18l36 -4zM882 1764l-28 -2l-20 -12h-8l-12 -12l28 -2zM1076 768q-6 -20 -20 -62q-6 -14 -28 -30t-26 -38q-2 -8 6 -25t6 -31q-8 -20 -20 -62l-28 -8q-4 -94 -4 -183q0 -60 2 -117l-28 -8q-30 -46 -38 -56 q-22 -26 -54 -42q4 -4 -2 -6q-8 0 -21 12t-19 12q-4 -2 -2 -4q-42 -14 -124 -46q-12 160 -16 342q-110 -38 -304 -122q-50 -136 -92 -270q-4 -2 -8 -2q-8 0 -15 14t-13 14q-14 0 -29 -33t-25 -39q0 4 -2 4q-4 0 -36 -23t-36 -25q22 22 34 76l14 16l-8 32l-54 -58l-8 -76 q-20 -10 -34 -10q-16 0 -17 20t-3 20q-8 0 -32 -42h-4q42 148 82 336q88 420 310 1002l140 44q16 6 74 44q38 24 84 24q34 0 142 40q-22 -48 -40 -96q22 6 64 20q12 14 44 34q4 2 16 6l-28 -50l32 -90l28 68l-6 52l8 18l-8 10q44 20 136 52q-64 -310 -86 -686zM874 1180 l-12 16l-26 -46l20 -56l18 42l-4 32zM666 1048q-140 -314 -202 -478q106 54 192 88q0 194 10 390zM184 256l-2 14l-26 -26l-6 -48l20 28l6 24zM230 178l-4 24l-38 -42l-6 -70q34 40 40 78z" />
<glyph unicode="&#xc8;" horiz-adv-x="810" d="M1418 1764l-36 -30l-2 2l-60 26l16 -32l16 -12l-28 -12l-36 -40l-2 4l-82 34l22 -44l36 -24l-46 -54l-354 358l82 50l56 -2l28 68l16 14l24 -18l4 -10l24 -2l-10 38l-20 8l90 68zM1080 1982l-8 26l-42 20l10 -24l18 -12l4 -8zM1192 1460q-26 -50 -44 -104h-18l-34 -16 l-8 2l-24 -20l38 -6l44 28q-6 -14 -16 -44l-90 -46l88 -6q-20 -34 -52 -106q-268 -60 -464 -130q-22 -60 -38 -116q144 46 324 94q-6 -16 -16 -46q40 10 116 26l-52 -114q-26 -8 -50 -12q4 -10 16 -30q-10 -16 -20 -40l-194 -54q-110 -32 -192 -70q-38 -132 -76 -342l162 80 l20 -18q90 42 250 102q-4 -8 -62 -134l46 18q-12 -28 -28 -84q-356 -144 -714 -380q-2 16 2 48q14 24 32 70q-16 30 -30 48q8 10 22 38l-24 -2v8q12 10 44 32q14 160 46 378q-24 -14 -78 -38q0 48 -4 72q18 32 32 54l-26 18q14 42 42 102q52 24 78 38l24 116 q-54 -22 -162 -70q12 20 88 136q-8 16 -20 48q38 32 62 56q-2 2 -6 64q-2 12 -4 18l40 52q224 88 406 152l16 34q258 64 508 96zM992 1270h-26l-24 -12l-8 2l-16 -14l28 -6zM846 932l-36 -2l-32 -14h-12l-20 -18l38 -8zM320 188h-22l-22 -10h-6l-12 -12l22 -4zM224 112 l-36 -2l-32 -14h-12l-20 -18l34 -8z" />
<glyph unicode="&#xca;" horiz-adv-x="810" d="M1598 1702l-98 -62l-34 30l-12 -58l-64 -30l-118 186l-226 -164h-66l20 34l12 6l28 32l14 6l12 30l-50 -18l-26 -40l-34 -6l-2 34l-50 -42l-32 26l336 364l108 36l24 -96l22 70l54 8zM1134 1826l-50 -18l-48 -76l44 26l28 32l14 6zM1192 1460q-26 -50 -44 -104h-18 l-34 -16l-8 2l-24 -20l38 -6l44 28q-6 -14 -16 -44l-90 -46l88 -6q-20 -34 -52 -106q-268 -60 -464 -130q-22 -60 -38 -116q144 46 324 94q-6 -16 -16 -46q40 10 116 26l-52 -114q-26 -8 -50 -12q4 -10 16 -30q-10 -16 -20 -40l-194 -54q-110 -32 -192 -70 q-38 -132 -76 -342l162 80l20 -18q90 42 250 102q-4 -8 -62 -134l46 18q-12 -28 -28 -84q-356 -144 -714 -380q-2 16 2 48q14 24 32 70q-16 30 -30 48q8 10 22 38l-24 -2v8q12 10 44 32q14 160 46 378q-24 -14 -78 -38q0 48 -4 72q18 32 32 54l-26 18q14 42 42 102 q52 24 78 38l24 116q-54 -22 -162 -70q12 20 88 136q-8 16 -20 48q38 32 62 56q-2 2 -6 64q-2 12 -4 18l40 52q224 88 406 152l16 34q258 64 508 96zM992 1270h-26l-24 -12l-8 2l-16 -14l28 -6zM846 932l-36 -2l-32 -14h-12l-20 -18l38 -8zM320 188h-22l-22 -10h-6l-12 -12 l22 -4zM224 112l-36 -2l-32 -14h-12l-20 -18l34 -8z" />
<glyph unicode="&#xcc;" horiz-adv-x="486" d="M922 1712l-36 -30l-2 2l-60 26l16 -32l16 -12l-28 -12l-36 -40l-2 4l-82 34l22 -44l36 -24l-46 -54l-354 358l82 50l56 -2l28 68l16 14l24 -18l4 -10l24 -2l-10 38l-20 8l90 68zM584 1930l-8 26l-42 20l10 -24l18 -12l4 -8zM726 1294q-166 -500 -262 -952 q-8 -36 -26 -106q-10 -22 -26 -68q-8 -58 -22 -172l-60 -24q-14 20 -38 64l2 38l12 18l-14 38l-48 -68l6 -68q-18 -18 -46 -56l-22 24q-22 -12 -44 -30q78 782 192 1326q62 22 186 70q2 -18 10 -50l-20 -26l10 -104l30 60l6 54l10 16l-4 16l38 38q48 14 92 32q-2 -6 -2 -12 q0 -8 14 -15t10 -23q2 -4 6 -8q-2 -14 2 -14zM444 1166l-10 24l-30 -42l8 -70l22 42l2 36zM462 1002l-4 14l-18 -24l4 -42l14 24l2 22zM370 236l-10 22l-28 -40l6 -70l22 40l2 36z" />
<glyph unicode="&#xce;" horiz-adv-x="486" d="M1104 1650l-98 -62l-34 30l-12 -58l-64 -30l-118 186l-226 -164h-66l20 34l12 6l28 32l14 6l12 30l-50 -18l-26 -40l-34 -6l-2 34l-50 -42l-32 26l336 364l108 36l24 -96l22 70l54 8zM640 1774l-50 -18l-48 -76l44 26l28 32l14 6zM726 1294q-166 -500 -262 -952 q-8 -36 -26 -106q-10 -22 -26 -68q-8 -58 -22 -172l-60 -24q-14 20 -38 64l2 38l12 18l-14 38l-48 -68l6 -68q-18 -18 -46 -56l-22 24q-22 -12 -44 -30q78 782 192 1326q62 22 186 70q2 -18 10 -50l-20 -26l10 -104l30 60l6 54l10 16l-4 16l38 38q48 14 92 32q-2 -6 -2 -12 q0 -8 14 -15t10 -23q2 -4 6 -8q-2 -14 2 -14zM444 1166l-10 24l-30 -42l8 -70l22 42l2 36zM462 1002l-4 14l-18 -24l4 -42l14 24l2 22zM370 236l-10 22l-28 -40l6 -70l22 40l2 36z" />
<glyph unicode="&#xd1;" horiz-adv-x="1046" d="M1760 1840l-38 -26l12 -32q-104 -110 -156 -150q-102 -82 -186 -82q-58 0 -144 61t-124 61q-66 0 -186 -98l-2 62l22 -2l78 54l-50 -4l-42 -20h-6l24 40h-44l-22 22l28 48l-96 -12l154 124q106 80 166 80t146 -73t118 -73q70 0 204 176l60 -26l-14 -90l-8 -4l-16 2 l-32 -28l60 -12l66 40zM1638 1808l-34 -2l-30 -14h-10l-18 -18l36 -4zM1038 1766l-28 -2l-20 -12h-8l-12 -12l28 -2zM1252 1340q-152 -600 -178 -1104q-50 -36 -76 -52q-16 44 -24 82l-52 -62l6 -76h-56q-2 -2 -26 -72q-246 282 -360 486q-8 -30 -36 -156q-8 -48 -34 -140 q-8 -18 -20 -58q-10 -50 -26 -172q-38 -16 -58 -20l-12 14l20 40l6 50l8 14l-10 32l-42 -56l6 -62l-20 30l-82 -96l-24 22l-44 -28q72 752 180 1262q10 4 58 4q30 0 66 26q48 34 62 40q-2 -20 -2 -48.5t2 -65.5q18 18 40 59t38 59q34 10 92 30q-2 -14 7 -24t5 -24h6l6 8 q0 -12 3 -20t11 -6l-6 -22q64 -370 154 -574q-1 16 -1 34q0 167 65 572l68 38q6 36 20 72q40 12 116 26l-28 -38l10 -100l30 58l6 52l10 16l-8 18q38 6 94 20q-16 -72 -22 -110q20 8 52 22zM1032 1204l-10 22l-28 -38l8 -70l20 40l4 36zM324 320l-8 22l-30 -40l8 -68l20 40 l4 34zM238 132l-10 22l-30 -40l8 -68l22 40l4 34z" />
<glyph unicode="&#xd2;" horiz-adv-x="1114" d="M1262 1712l-36 -30l-2 2l-60 26l16 -32l16 -12l-28 -12l-36 -40l-2 4l-82 34l22 -44l36 -24l-46 -54l-354 358l82 50l56 -2l28 68l16 14l24 -18l4 -10l24 -2l-10 38l-20 8l90 68zM924 1930l-8 26l-42 20l10 -24l18 -12l4 -8zM352 -54q-214 0 -308 152l20 -4l-8 62l-50 30 q-20 68 -20 144q0 232 168 490q160 248 400 414q254 174 482 174q142 0 238 -76l22 -88l-60 4l-2 32l-84 46l16 -54l36 -30l2 -16h2l-12 -58l-84 -38l-64 36l16 -54l12 -10l-48 -54l64 38l6 -4l4 -16l34 -10l-4 42l96 8v36l50 12l-12 38l90 -38l26 22q22 -72 22 -154 q0 -230 -166 -490q-160 -248 -400 -412q-254 -174 -484 -174zM1180 966l-4 42l-54 30l10 -36l22 -20l4 -10zM1052 806q0 92 -50 149t-146 57q-192 0 -379 -198t-187 -392q0 -90 51 -147t147 -57q192 0 378 197t186 391zM192 166l-4 36l-48 26l10 -30l20 -18l2 -10zM216 14 l-6 64l-84 46l16 -54l36 -30l4 -16z" />
<glyph unicode="&#xd4;" horiz-adv-x="1114" d="M1442 1650l-98 -62l-34 30l-12 -58l-64 -30l-118 186l-226 -164h-66l20 34l12 6l28 32l14 6l12 30l-50 -18l-26 -40l-34 -6l-2 34l-50 -42l-32 26l336 364l108 36l24 -96l22 70l54 8zM978 1774l-50 -18l-48 -76l44 26l28 32l14 6zM352 -54q-214 0 -308 152l20 -4l-8 62 l-50 30q-20 68 -20 144q0 232 168 490q160 248 400 414q254 174 482 174q142 0 238 -76l22 -88l-60 4l-2 32l-84 46l16 -54l36 -30l2 -16h2l-12 -58l-84 -38l-64 36l16 -54l12 -10l-48 -54l64 38l6 -4l4 -16l34 -10l-4 42l96 8v36l50 12l-12 38l90 -38l26 22q22 -72 22 -154 q0 -230 -166 -490q-160 -248 -400 -412q-254 -174 -484 -174zM1180 966l-4 42l-54 30l10 -36l22 -20l4 -10zM1052 806q0 92 -50 149t-146 57q-192 0 -379 -198t-187 -392q0 -90 51 -147t147 -57q192 0 378 197t186 391zM192 166l-4 36l-48 26l10 -30l20 -18l2 -10zM216 14 l-6 64l-84 46l16 -54l36 -30l4 -16z" />
<glyph unicode="&#xd5;" horiz-adv-x="1114" d="M1574 1820l-38 -26l12 -32q-104 -110 -156 -150q-102 -82 -186 -82q-58 0 -144 61t-124 61q-66 0 -186 -98l-2 62l22 -2l78 54l-50 -4l-42 -20h-6l24 40h-44l-22 22l28 48l-96 -12l154 124q106 80 166 80t146 -73t118 -73q70 0 204 176l60 -26l-14 -90l-8 -4l-16 2 l-32 -28l60 -12l66 40zM1452 1788l-34 -2l-30 -14h-10l-18 -18l36 -4zM852 1746l-28 -2l-20 -12h-8l-12 -12l28 -2zM352 -54q-214 0 -308 152l20 -4l-8 62l-50 30q-20 68 -20 144q0 232 168 490q160 248 400 414q254 174 482 174q142 0 238 -76l22 -88l-60 4l-2 32l-84 46 l16 -54l36 -30l2 -16h2l-12 -58l-84 -38l-64 36l16 -54l12 -10l-48 -54l64 38l6 -4l4 -16l34 -10l-4 42l96 8v36l50 12l-12 38l90 -38l26 22q22 -72 22 -154q0 -230 -166 -490q-160 -248 -400 -412q-254 -174 -484 -174zM1180 966l-4 42l-54 30l10 -36l22 -20l4 -10z M1052 806q0 92 -50 149t-146 57q-192 0 -379 -198t-187 -392q0 -90 51 -147t147 -57q192 0 378 197t186 391zM192 166l-4 36l-48 26l10 -30l20 -18l2 -10zM216 14l-6 64l-84 46l16 -54l36 -30l4 -16z" />
<glyph unicode="&#xd9;" horiz-adv-x="986" d="M1482 1830l-36 -30l-2 2l-60 26l16 -32l16 -12l-28 -12l-36 -40l-2 4l-82 34l22 -44l36 -24l-46 -54l-354 358l82 50l56 -2l28 68l16 14l24 -18l4 -10l24 -2l-10 38l-20 8l90 68zM1144 2048l-8 26l-42 20l10 -24l18 -12l4 -8zM1292 1458q-158 -476 -256 -936 q-8 -34 -27 -87t-23 -77q-2 -8 -22 -164q-38 -16 -58 -22q-26 44 -42 66q-52 -58 -84 -98l-24 20l-44 -28q2 12 14 138q-180 -90 -366 -218l-2 -8q-48 -24 -86 -50l6 12l6 52l8 16l-14 30l-42 -56l10 -72q-36 -22 -56 -38q2 18 10 60q-16 -8 -48 -30q0 6 18 158l-86 -166 l-12 2q84 506 110 644q68 362 142 636q12 4 24 4q10 0 26 -6t26 -6q28 0 74 34l10 -96l32 56l2 50l12 16l-6 12q18 4 30 4t27 -9t27 -9q26 0 70 36q50 44 72 52l-160 -478q-92 -278 -142 -478l316 182q46 394 134 818l186 68q4 -32 12 -60l66 64l22 8l-28 -36l12 -98l30 56 l4 50l10 16l-6 18q16 4 50 16q-10 -30 -20 -80q30 4 56 12zM1042 1358l-6 18l-26 -32l6 -58l16 32l4 30zM1080 1260l-8 18l-24 -32l6 -58l18 34l2 30zM254 174l-6 18l-26 -34l6 -56l18 32q2 24 8 40z" />
<glyph unicode="&#xdb;" horiz-adv-x="986" d="M1662 1768l-98 -62l-34 30l-12 -58l-64 -30l-118 186l-226 -164h-66l20 34l12 6l28 32l14 6l12 30l-50 -18l-26 -40l-34 -6l-2 34l-50 -42l-32 26l336 364l108 36l24 -96l22 70l54 8zM1198 1892l-50 -18l-48 -76l44 26l28 32l14 6zM1292 1458q-158 -476 -256 -936 q-8 -34 -27 -87t-23 -77q-2 -8 -22 -164q-38 -16 -58 -22q-26 44 -42 66q-52 -58 -84 -98l-24 20l-44 -28q2 12 14 138q-180 -90 -366 -218l-2 -8q-48 -24 -86 -50l6 12l6 52l8 16l-14 30l-42 -56l10 -72q-36 -22 -56 -38q2 18 10 60q-16 -8 -48 -30q0 6 18 158l-86 -166 l-12 2q84 506 110 644q68 362 142 636q12 4 24 4q10 0 26 -6t26 -6q28 0 74 34l10 -96l32 56l2 50l12 16l-6 12q18 4 30 4t27 -9t27 -9q26 0 70 36q50 44 72 52l-160 -478q-92 -278 -142 -478l316 182q46 394 134 818l186 68q4 -32 12 -60l66 64l22 8l-28 -36l12 -98l30 56 l4 50l10 16l-6 18q16 4 50 16q-10 -30 -20 -80q30 4 56 12zM1042 1358l-6 18l-26 -32l6 -58l16 32l4 30zM1080 1260l-8 18l-24 -32l6 -58l18 34l2 30zM254 174l-6 18l-26 -34l6 -56l18 32q2 24 8 40z" />
<glyph unicode="&#xe0;" horiz-adv-x="894" d="M1300 1730l-36 -30l-2 2l-60 26l16 -32l16 -12l-28 -12l-36 -40l-2 4l-82 34l22 -44l36 -24l-46 -54l-354 358l82 50l56 -2l28 68l16 14l24 -18l4 -10l24 -2l-10 38l-20 8l90 68zM962 1948l-8 26l-42 20l10 -24l18 -12l4 -8zM1100 822l-82 -248l-42 -12q-6 -106 -6 -266 v-84q-10 -4 -20 -4q-6 0 -34 6q-22 2 -36 -2l8 26l-4 30l6 14l-14 14l-24 -46l16 -44q-16 -8 -26 -26l-32 -8q0 -8 -2 -52q-42 -14 -124 -46q-12 208 -18 390q-90 -28 -280 -114q-76 -202 -114 -326q-32 -14 -90 -46q4 18 12 44q-94 -60 -112 -60q-19 0 -19 21q0 13 7 33 q-26 -34 -74 -106h-4q22 72 78 328q46 204 92 326q6 16 25 30t25 46q6 20 7 62t5 62q26 122 164 486q48 16 140 44q38 0 118 16h2l-42 -44l-10 -102l42 58l18 54l12 16l-4 26q22 20 78 54l86 30q-22 -48 -40 -96q72 20 64 20q10 0 16 -9t10 -9q6 0 10 2q14 16 50 44 q46 32 136 72q-60 -306 -84 -636q2 0 110 32zM898 1264l-12 14l-26 -46l20 -56l18 44l-4 32zM544 1120l-4 18l-30 -32l-6 -54l24 30l8 30zM674 1048q-66 -140 -178 -420q4 2 168 76q0 192 10 344z" />
<glyph unicode="&#xe2;" horiz-adv-x="894" d="M1480 1668l-98 -62l-34 30l-12 -58l-64 -30l-118 186l-226 -164h-66l20 34l12 6l28 32l14 6l12 30l-50 -18l-26 -40l-34 -6l-2 34l-50 -42l-32 26l336 364l108 36l24 -96l22 70l54 8zM1016 1792l-50 -18l-48 -76l44 26l28 32l14 6zM1100 822l-82 -248l-42 -12 q-6 -106 -6 -266v-84q-10 -4 -20 -4q-6 0 -34 6q-22 2 -36 -2l8 26l-4 30l6 14l-14 14l-24 -46l16 -44q-16 -8 -26 -26l-32 -8q0 -8 -2 -52q-42 -14 -124 -46q-12 208 -18 390q-90 -28 -280 -114q-76 -202 -114 -326q-32 -14 -90 -46q4 18 12 44q-94 -60 -112 -60 q-19 0 -19 21q0 13 7 33q-26 -34 -74 -106h-4q22 72 78 328q46 204 92 326q6 16 25 30t25 46q6 20 7 62t5 62q26 122 164 486q48 16 140 44q38 0 118 16h2l-42 -44l-10 -102l42 58l18 54l12 16l-4 26q22 20 78 54l86 30q-22 -48 -40 -96q72 20 64 20q10 0 16 -9t10 -9 q6 0 10 2q14 16 50 44q46 32 136 72q-60 -306 -84 -636q2 0 110 32zM898 1264l-12 14l-26 -46l20 -56l18 44l-4 32zM544 1120l-4 18l-30 -32l-6 -54l24 30l8 30zM674 1048q-66 -140 -178 -420q4 2 168 76q0 192 10 344z" />
<glyph unicode="&#xe3;" horiz-adv-x="894" d="M1612 1838l-38 -26l12 -32q-104 -110 -156 -150q-102 -82 -186 -82q-58 0 -144 61t-124 61q-66 0 -186 -98l-2 62l22 -2l78 54l-50 -4l-42 -20h-6l24 40h-44l-22 22l28 48l-96 -12l154 124q106 80 166 80t146 -73t118 -73q70 0 204 176l60 -26l-14 -90l-8 -4l-16 2 l-32 -28l60 -12l66 40zM1490 1806l-34 -2l-30 -14h-10l-18 -18l36 -4zM890 1764l-28 -2l-20 -12h-8l-12 -12l28 -2zM1100 822l-82 -248l-42 -12q-6 -106 -6 -266v-84q-10 -4 -20 -4q-6 0 -34 6q-22 2 -36 -2l8 26l-4 30l6 14l-14 14l-24 -46l16 -44q-16 -8 -26 -26l-32 -8 q0 -8 -2 -52q-42 -14 -124 -46q-12 208 -18 390q-90 -28 -280 -114q-76 -202 -114 -326q-32 -14 -90 -46q4 18 12 44q-94 -60 -112 -60q-19 0 -19 21q0 13 7 33q-26 -34 -74 -106h-4q22 72 78 328q46 204 92 326q6 16 25 30t25 46q6 20 7 62t5 62q26 122 164 486 q48 16 140 44q38 0 118 16h2l-42 -44l-10 -102l42 58l18 54l12 16l-4 26q22 20 78 54l86 30q-22 -48 -40 -96q72 20 64 20q10 0 16 -9t10 -9q6 0 10 2q14 16 50 44q46 32 136 72q-60 -306 -84 -636q2 0 110 32zM898 1264l-12 14l-26 -46l20 -56l18 44l-4 32zM544 1120l-4 18 l-30 -32l-6 -54l24 30l8 30zM674 1048q-66 -140 -178 -420q4 2 168 76q0 192 10 344z" />
<glyph unicode="&#xe8;" horiz-adv-x="886" d="M1468 1774l-36 -30l-2 2l-60 26l16 -32l16 -12l-28 -12l-36 -40l-2 4l-82 34l22 -44l36 -24l-46 -54l-354 358l82 50l56 -2l28 68l16 14l24 -18l4 -10l24 -2l-10 38l-20 8l90 68zM1130 1992l-8 26l-42 20l10 -24l18 -12l4 -8zM1242 1470q-14 -22 -26 -70t-26 -70l-22 4 l-58 -40l38 2l28 16l-40 -60q20 6 60 14q-36 -62 -52 -96q-258 -64 -458 -132q-16 -42 -52 -162l226 86l-6 -36l196 56q-36 -104 -70 -234q-192 -54 -422 -134q-42 -154 -88 -364q212 96 424 166l-26 -54q20 4 60 16q-8 -22 -12 -40l-36 4l-92 -64l60 4l48 24h10l-8 -32 l-30 -10l18 -30q-10 -16 -24 -46q-202 -50 -372 -126l-66 -30l-2 -22q-20 -4 -58 -16l-6 6q-116 -56 -250 -130q16 78 68 120v8q-14 2 -34 14q16 28 28 42q-8 14 -12 40l26 14q14 180 38 364q-50 -26 -82 -38l66 98q-24 18 -42 38q6 28 16 82q32 20 74 44q10 88 30 180 q-76 -36 -146 -64l12 60l60 78l-4 8l18 2l34 16h12l16 18l-40 6l-44 -32q-8 16 -22 48q10 12 18 53t18 55h-30l2 10q54 30 160 84q200 92 526 190l24 -24q144 40 344 86zM440 1094l-60 8l-92 -66l58 4l50 24h16zM714 224l-36 4l-56 -38l36 2l30 14h10z" />
<glyph unicode="&#xea;" horiz-adv-x="886" d="M1648 1712l-98 -62l-34 30l-12 -58l-64 -30l-118 186l-226 -164h-66l20 34l12 6l28 32l14 6l12 30l-50 -18l-26 -40l-34 -6l-2 34l-50 -42l-32 26l336 364l108 36l24 -96l22 70l54 8zM1184 1836l-50 -18l-48 -76l44 26l28 32l14 6zM1242 1470q-14 -22 -26 -70t-26 -70 l-22 4l-58 -40l38 2l28 16l-40 -60q20 6 60 14q-36 -62 -52 -96q-258 -64 -458 -132q-16 -42 -52 -162l226 86l-6 -36l196 56q-36 -104 -70 -234q-192 -54 -422 -134q-42 -154 -88 -364q212 96 424 166l-26 -54q20 4 60 16q-8 -22 -12 -40l-36 4l-92 -64l60 4l48 24h10 l-8 -32l-30 -10l18 -30q-10 -16 -24 -46q-202 -50 -372 -126l-66 -30l-2 -22q-20 -4 -58 -16l-6 6q-116 -56 -250 -130q16 78 68 120v8q-14 2 -34 14q16 28 28 42q-8 14 -12 40l26 14q14 180 38 364q-50 -26 -82 -38l66 98q-24 18 -42 38q6 28 16 82q32 20 74 44 q10 88 30 180q-76 -36 -146 -64l12 60l60 78l-4 8l18 2l34 16h12l16 18l-40 6l-44 -32q-8 16 -22 48q10 12 18 53t18 55h-30l2 10q54 30 160 84q200 92 526 190l24 -24q144 40 344 86zM440 1094l-60 8l-92 -66l58 4l50 24h16zM714 224l-36 4l-56 -38l36 2l30 14h10z" />
<glyph unicode="&#xec;" horiz-adv-x="480" d="M914 1712l-36 -30l-2 2l-60 26l16 -32l16 -12l-28 -12l-36 -40l-2 4l-82 34l22 -44l36 -24l-46 -54l-354 358l82 50l56 -2l28 68l16 14l24 -18l4 -10l24 -2l-10 38l-20 8l90 68zM576 1930l-8 26l-42 20l10 -24l18 -12l4 -8zM718 1294q-176 -558 -270 -994q-4 -22 -20 -66 t-22 -66q-8 -58 -22 -172l-60 -24q-16 22 -42 68l-8 -10l2 28l6 12l-6 24l-30 -42l4 -52q-20 -20 -54 -62l-20 24l-44 -30q82 810 192 1326q60 24 94 36h4l10 -102l30 60l6 54l4 8l36 14l14 -62l68 66q58 20 90 32q-12 -54 -20 -84q36 8 58 14zM496 1144l-10 24l-28 -42 l4 -70l24 42l4 36zM426 1038l-4 14l-18 -24l6 -42q12 18 14 46z" />
<glyph unicode="&#xee;" horiz-adv-x="480" d="M1096 1650l-98 -62l-34 30l-12 -58l-64 -30l-118 186l-226 -164h-66l20 34l12 6l28 32l14 6l12 30l-50 -18l-26 -40l-34 -6l-2 34l-50 -42l-32 26l336 364l108 36l24 -96l22 70l54 8zM632 1774l-50 -18l-48 -76l44 26l28 32l14 6zM718 1294q-176 -558 -270 -994 q-4 -22 -20 -66t-22 -66q-8 -58 -22 -172l-60 -24q-16 22 -42 68l-8 -10l2 28l6 12l-6 24l-30 -42l4 -52q-20 -20 -54 -62l-20 24l-44 -30q82 810 192 1326q60 24 94 36h4l10 -102l30 60l6 54l4 8l36 14l14 -62l68 66q58 20 90 32q-12 -54 -20 -84q36 8 58 14zM496 1144 l-10 24l-28 -42l4 -70l24 42l4 36zM426 1038l-4 14l-18 -24l6 -42q12 18 14 46z" />
<glyph unicode="&#xf1;" horiz-adv-x="1038" d="M1362 1820l-38 -26l12 -32q-104 -110 -156 -150q-102 -82 -186 -82q-58 0 -144 61t-124 61q-66 0 -186 -98l-2 62l22 -2l78 54l-50 -4l-42 -20h-6l24 40h-44l-22 22l28 48l-96 -12l154 124q106 80 166 80t146 -73t118 -73q70 0 204 176l60 -26l-14 -90l-8 -4l-16 2 l-32 -28l60 -12l66 40zM1240 1788l-34 -2l-30 -14h-10l-18 -18l36 -4zM640 1746l-28 -2l-20 -12h-8l-12 -12l28 -2zM1316 1266q-224 -598 -302 -1104q-28 -16 -82 -44q-4 12 -8 50l10 18l4 52l10 16l-14 32l-42 -58l4 -46l-34 -36q0 -28 -4 -78l-30 4l-4 -8l-8 10l-44 6 l4 42q-232 274 -326 450q-42 -208 -68 -514q-54 -34 -82 -54l-18 90q-2 -4 -54 -64q0 -42 2 -80q-58 4 -88 8q14 616 126 1214l68 38q0 2 24 76q44 8 134 26l-26 -36l10 -96l30 56l6 50l8 16l-6 14q24 4 76 16q-12 -42 -28 -120q16 8 54 22l-2 -8l40 64q82 -458 180 -662 q16 96 54 286q28 130 78 314q40 18 68 34q12 24 30 70q32 2 230 28q-24 -68 -34 -110q24 4 54 16zM430 1128l-8 22l-30 -38l8 -70l20 40l4 36zM874 340l-10 22l-30 -40l8 -68l22 40l2 36z" />
<glyph unicode="&#xf2;" d="M1258 1712l-36 -30l-2 2l-60 26l16 -32l16 -12l-28 -12l-36 -40l-2 4l-82 34l22 -44l36 -24l-46 -54l-354 358l82 50l56 -2l28 68l16 14l24 -18l4 -10l24 -2l-10 38l-20 8l90 68zM920 1930l-8 26l-42 20l10 -24l18 -12l4 -8zM1384 884q-70 -324 -384 -626 q-328 -316 -644 -316q-122 0 -216 58l-6 58l-84 46l12 -36q-78 98 -78 254q0 236 164 496q158 250 398 416q252 174 486 174q144 0 236 -76l24 -88l-26 2l-6 50l-80 48l16 -54l32 -32l4 -10l-24 2l-18 -82l-16 -8l-4 30l-84 46l18 -52l34 -32v-6l-52 -24l-64 -74l84 50l96 6 l4 -12l24 -20l2 -10l22 -6l-4 42l-28 14v30l50 12l-12 38l90 -38l26 22q22 -72 22 -156q0 -66 -14 -136zM1058 1136l-2 40l-56 30l10 -34l24 -22l2 -10zM1180 990l-4 30l-40 22l10 -26l16 -14v-8zM1048 806q0 92 -50 149t-146 57q-192 0 -379 -198t-187 -392q0 -90 51 -147 t147 -57q192 0 378 197t186 391zM268 204l-2 36l-48 26l10 -30l20 -18l2 -10zM258 64l-2 36l-48 26l10 -30l20 -18l2 -8zM178 110l-6 62l-84 46l16 -54l36 -30l2 -16z" />
<glyph unicode="&#xf4;" d="M1438 1650l-98 -62l-34 30l-12 -58l-64 -30l-118 186l-226 -164h-66l20 34l12 6l28 32l14 6l12 30l-50 -18l-26 -40l-34 -6l-2 34l-50 -42l-32 26l336 364l108 36l24 -96l22 70l54 8zM974 1774l-50 -18l-48 -76l44 26l28 32l14 6zM1384 884q-70 -324 -384 -626 q-328 -316 -644 -316q-122 0 -216 58l-6 58l-84 46l12 -36q-78 98 -78 254q0 236 164 496q158 250 398 416q252 174 486 174q144 0 236 -76l24 -88l-26 2l-6 50l-80 48l16 -54l32 -32l4 -10l-24 2l-18 -82l-16 -8l-4 30l-84 46l18 -52l34 -32v-6l-52 -24l-64 -74l84 50l96 6 l4 -12l24 -20l2 -10l22 -6l-4 42l-28 14v30l50 12l-12 38l90 -38l26 22q22 -72 22 -156q0 -66 -14 -136zM1058 1136l-2 40l-56 30l10 -34l24 -22l2 -10zM1180 990l-4 30l-40 22l10 -26l16 -14v-8zM1048 806q0 92 -50 149t-146 57q-192 0 -379 -198t-187 -392q0 -90 51 -147 t147 -57q192 0 378 197t186 391zM268 204l-2 36l-48 26l10 -30l20 -18l2 -10zM258 64l-2 36l-48 26l10 -30l20 -18l2 -8zM178 110l-6 62l-84 46l16 -54l36 -30l2 -16z" />
<glyph unicode="&#xf5;" d="M1570 1820l-38 -26l12 -32q-104 -110 -156 -150q-102 -82 -186 -82q-58 0 -144 61t-124 61q-66 0 -186 -98l-2 62l22 -2l78 54l-50 -4l-42 -20h-6l24 40h-44l-22 22l28 48l-96 -12l154 124q106 80 166 80t146 -73t118 -73q70 0 204 176l60 -26l-14 -90l-8 -4l-16 2 l-32 -28l60 -12l66 40zM1448 1788l-34 -2l-30 -14h-10l-18 -18l36 -4zM848 1746l-28 -2l-20 -12h-8l-12 -12l28 -2zM1384 884q-70 -324 -384 -626q-328 -316 -644 -316q-122 0 -216 58l-6 58l-84 46l12 -36q-78 98 -78 254q0 236 164 496q158 250 398 416q252 174 486 174 q144 0 236 -76l24 -88l-26 2l-6 50l-80 48l16 -54l32 -32l4 -10l-24 2l-18 -82l-16 -8l-4 30l-84 46l18 -52l34 -32v-6l-52 -24l-64 -74l84 50l96 6l4 -12l24 -20l2 -10l22 -6l-4 42l-28 14v30l50 12l-12 38l90 -38l26 22q22 -72 22 -156q0 -66 -14 -136zM1058 1136l-2 40 l-56 30l10 -34l24 -22l2 -10zM1180 990l-4 30l-40 22l10 -26l16 -14v-8zM1048 806q0 92 -50 149t-146 57q-192 0 -379 -198t-187 -392q0 -90 51 -147t147 -57q192 0 378 197t186 391zM268 204l-2 36l-48 26l10 -30l20 -18l2 -10zM258 64l-2 36l-48 26l10 -30l20 -18l2 -8z M178 110l-6 62l-84 46l16 -54l36 -30l2 -16z" />
<glyph unicode="&#xf9;" horiz-adv-x="1012" d="M1510 1816l-36 -30l-2 2l-60 26l16 -32l16 -12l-28 -12l-36 -40l-2 4l-82 34l22 -44l36 -24l-46 -54l-354 358l82 50l56 -2l28 68l16 14l24 -18l4 -10l24 -2l-10 38l-20 8l90 68zM1172 2034l-8 26l-42 20l10 -24l18 -12l4 -8zM1284 1512q-220 -886 -278 -1340 q-42 -28 -88 -54l2 46l-44 -36l2 28l8 12l-12 24l-30 -44l2 -40l-40 -30v31q0 51 4 127q-38 -84 -72 -168h-14l16 198q-164 -84 -358 -214q-8 -30 -8 -56q-20 -6 -60 -22l-14 24l-88 -60l8 40l-32 -36l-22 22l-46 -28q74 762 186 1288q38 12 78 28l-2 -2l6 -100l34 56l6 52 l10 14l52 20l14 -60q22 22 68 64l90 30q-10 -52 -20 -80q30 4 58 12q-174 -546 -238 -840l304 176q20 304 100 748q12 6 24 6q8 0 24 -5t24 -5q32 0 80 46t78 46l-30 -36l6 -102l32 58l8 50l10 16l-2 6q12 -6 24 -6q28 0 70 40q52 48 70 56zM448 1122l-8 18l-24 -34l8 -56 l16 32l2 30zM920 388l-8 18l-24 -32l8 -58l16 34l2 28zM972 298l-10 24l-32 -42l8 -74l22 42l4 38z" />
<glyph unicode="&#xfb;" horiz-adv-x="1012" d="M1690 1754l-98 -62l-34 30l-12 -58l-64 -30l-118 186l-226 -164h-66l20 34l12 6l28 32l14 6l12 30l-50 -18l-26 -40l-34 -6l-2 34l-50 -42l-32 26l336 364l108 36l24 -96l22 70l54 8zM1226 1878l-50 -18l-48 -76l44 26l28 32l14 6zM1284 1512q-220 -886 -278 -1340 q-42 -28 -88 -54l2 46l-44 -36l2 28l8 12l-12 24l-30 -44l2 -40l-40 -30v31q0 51 4 127q-38 -84 -72 -168h-14l16 198q-164 -84 -358 -214q-8 -30 -8 -56q-20 -6 -60 -22l-14 24l-88 -60l8 40l-32 -36l-22 22l-46 -28q74 762 186 1288q38 12 78 28l-2 -2l6 -100l34 56l6 52 l10 14l52 20l14 -60q22 22 68 64l90 30q-10 -52 -20 -80q30 4 58 12q-174 -546 -238 -840l304 176q20 304 100 748q12 6 24 6q8 0 24 -5t24 -5q32 0 80 46t78 46l-30 -36l6 -102l32 58l8 50l10 16l-2 6q12 -6 24 -6q28 0 70 40q52 48 70 56zM448 1122l-8 18l-24 -34l8 -56 l16 32l2 30zM920 388l-8 18l-24 -32l8 -58l16 34l2 28zM972 298l-10 24l-32 -42l8 -74l22 42l4 38z" />
<glyph unicode="&#x152;" horiz-adv-x="1924" d="M2306 1460q-26 -50 -44 -104h-18l-34 -16l-8 2l-24 -20l38 -6l44 28q-6 -14 -16 -44l-90 -46l88 -6q-20 -34 -52 -106q-268 -60 -464 -130q-22 -60 -38 -116q144 46 324 94q-6 -16 -16 -46q40 10 116 26l-52 -114q-26 -8 -50 -12q4 -10 16 -30q-10 -16 -20 -40l-194 -54 q-110 -32 -192 -70q-38 -132 -76 -342l162 80l20 -18q90 42 250 102q-4 -8 -62 -134l46 18q-12 -28 -28 -84q-356 -144 -714 -380q-2 16 2 48q14 24 32 70q-16 30 -30 48q8 10 22 38l-24 -2v8q12 10 44 32q14 160 46 378q-24 -14 -78 -38q0 48 -4 72q18 32 32 54l-26 18 q14 42 42 102q52 24 78 38l24 116q-54 -22 -162 -70q12 20 88 136q-8 16 -20 48q38 32 62 56q-2 2 -6 64q-2 12 -4 18l40 52q224 88 406 152l16 34q258 64 508 96zM2106 1270h-26l-24 -12l-8 2l-16 -14l28 -6zM1960 932l-36 -2l-32 -14h-12l-20 -18l38 -8zM1434 188h-22 l-22 -10h-6l-12 -12l22 -4zM1338 112l-36 -2l-32 -14h-12l-20 -18l34 -8zM352 -54q-214 0 -308 152l20 -4l-8 62l-50 30q-20 68 -20 144q0 232 168 490q160 248 400 414q254 174 482 174q142 0 238 -76l22 -88l-60 4l-2 32l-84 46l16 -54l36 -30l2 -16h2l-12 -58l-84 -38 l-64 36l16 -54l12 -10l-48 -54l64 38l6 -4l4 -16l34 -10l-4 42l96 8v36l50 12l-12 38l90 -38l26 22q22 -72 22 -154q0 -230 -166 -490q-160 -248 -400 -412q-254 -174 -484 -174zM1180 966l-4 42l-54 30l10 -36l22 -20l4 -10zM1052 806q0 92 -50 149t-146 57 q-192 0 -379 -198t-187 -392q0 -90 51 -147t147 -57q192 0 378 197t186 391zM192 166l-4 36l-48 26l10 -30l20 -18l2 -10zM216 14l-6 64l-84 46l16 -54l36 -30l4 -16z" />
<glyph unicode="&#x153;" horiz-adv-x="1998" d="M2354 1470q-14 -22 -26 -70t-26 -70l-22 4l-58 -40l38 2l28 16l-40 -60q20 6 60 14q-36 -62 -52 -96q-258 -64 -458 -132q-16 -42 -52 -162l226 86l-6 -36l196 56q-36 -104 -70 -234q-192 -54 -422 -134q-42 -154 -88 -364q212 96 424 166l-26 -54q20 4 60 16 q-8 -22 -12 -40l-36 4l-92 -64l60 4l48 24h10l-8 -32l-30 -10l18 -30q-10 -16 -24 -46q-202 -50 -372 -126l-66 -30l-2 -22q-20 -4 -58 -16l-6 6q-116 -56 -250 -130q16 78 68 120v8q-14 2 -34 14q16 28 28 42q-8 14 -12 40l26 14q14 180 38 364q-50 -26 -82 -38l66 98 q-24 18 -42 38q6 28 16 82q32 20 74 44q10 88 30 180q-76 -36 -146 -64l12 60l60 78l-4 8l18 2l34 16h12l16 18l-40 6l-44 -32q-8 16 -22 48q10 12 18 53t18 55h-30l2 10q54 30 160 84q200 92 526 190l24 -24q144 40 344 86zM1552 1094l-60 8l-92 -66l58 4l50 24h16z M1826 224l-36 4l-56 -38l36 2l30 14h10zM1384 884q-70 -324 -384 -626q-328 -316 -644 -316q-122 0 -216 58l-6 58l-84 46l12 -36q-78 98 -78 254q0 236 164 496q158 250 398 416q252 174 486 174q144 0 236 -76l24 -88l-26 2l-6 50l-80 48l16 -54l32 -32l4 -10l-24 2 l-18 -82l-16 -8l-4 30l-84 46l18 -52l34 -32v-6l-52 -24l-64 -74l84 50l96 6l4 -12l24 -20l2 -10l22 -6l-4 42l-28 14v30l50 12l-12 38l90 -38l26 22q22 -72 22 -156q0 -66 -14 -136zM1058 1136l-2 40l-56 30l10 -34l24 -22l2 -10zM1180 990l-4 30l-40 22l10 -26l16 -14v-8z M1048 806q0 92 -50 149t-146 57q-192 0 -379 -198t-187 -392q0 -90 51 -147t147 -57q192 0 378 197t186 391zM268 204l-2 36l-48 26l10 -30l20 -18l2 -10zM258 64l-2 36l-48 26l10 -30l20 -18l2 -8zM178 110l-6 62l-84 46l16 -54l36 -30l2 -16z" />
<glyph unicode="&#x2c6;" horiz-adv-x="628" d="M922 1108l-98 -62l-34 30l-12 -58l-64 -30l-118 186l-226 -164h-66l20 34l12 6l28 32l14 6l12 30l-50 -18l-26 -40l-34 -6l-2 34l-50 -42l-32 26l336 364l108 36l24 -96l22 70l54 8zM458 1232l-50 -18l-48 -76l44 26l28 32l14 6z" />
<glyph unicode="&#x2dc;" horiz-adv-x="560" d="M538 412l-38 -26l12 -32q-104 -110 -156 -150q-102 -82 -186 -82q-58 0 -144 61t-124 61q-66 0 -186 -98l-2 62l22 -2l78 54l-50 -4l-42 -20h-6l24 40h-44l-22 22l28 48l-96 -12l154 124q106 80 166 80t146 -73t118 -73q70 0 204 176l60 -26l-14 -90l-8 -4l-16 2l-32 -28 l60 -12l66 40zM416 380l-34 -2l-30 -14h-10l-18 -18l36 -4zM-184 338l-28 -2l-20 -12h-8l-12 -12l28 -2z" />
<glyph unicode="&#x2000;" horiz-adv-x="1110" />
<glyph unicode="&#x2001;" horiz-adv-x="2220" />
<glyph unicode="&#x2002;" horiz-adv-x="1110" />
<glyph unicode="&#x2003;" horiz-adv-x="2220" />
<glyph unicode="&#x2004;" horiz-adv-x="740" />
<glyph unicode="&#x2005;" horiz-adv-x="554" />
<glyph unicode="&#x2006;" horiz-adv-x="370" />
<glyph unicode="&#x2007;" horiz-adv-x="370" />
<glyph unicode="&#x2008;" horiz-adv-x="276" />
<glyph unicode="&#x2009;" horiz-adv-x="444" />
<glyph unicode="&#x200a;" horiz-adv-x="122" />
<glyph unicode="&#x2010;" horiz-adv-x="758" d="M886 872l-14 -88l-78 -72l38 -32v-8l-102 -56l60 -4l42 16l-2 -62l-666 -100l-4 36l92 74l-80 22l48 18l16 -2l34 28l-58 14l-52 -28v42l50 20l-40 26l12 32zM792 774l-42 12l-76 -42l44 -2l38 14h12zM380 626l-32 8l-54 -30l32 -2l28 12l8 -2z" />
<glyph unicode="&#x2011;" horiz-adv-x="758" d="M886 872l-14 -88l-78 -72l38 -32v-8l-102 -56l60 -4l42 16l-2 -62l-666 -100l-4 36l92 74l-80 22l48 18l16 -2l34 28l-58 14l-52 -28v42l50 20l-40 26l12 32zM792 774l-42 12l-76 -42l44 -2l38 14h12zM380 626l-32 8l-54 -30l32 -2l28 12l8 -2z" />
<glyph unicode="&#x2012;" horiz-adv-x="758" d="M886 872l-14 -88l-78 -72l38 -32v-8l-102 -56l60 -4l42 16l-2 -62l-666 -100l-4 36l92 74l-80 22l48 18l16 -2l34 28l-58 14l-52 -28v42l50 20l-40 26l12 32zM792 774l-42 12l-76 -42l44 -2l38 14h12zM380 626l-32 8l-54 -30l32 -2l28 12l8 -2z" />
<glyph unicode="&#x2013;" horiz-adv-x="758" d="M886 872l-14 -88l-78 -72l38 -32v-8l-102 -56l60 -4l42 16l-2 -62l-666 -100l-4 36l92 74l-80 22l48 18l16 -2l34 28l-58 14l-52 -28v42l50 20l-40 26l12 32zM792 774l-42 12l-76 -42l44 -2l38 14h12zM380 626l-32 8l-54 -30l32 -2l28 12l8 -2z" />
<glyph unicode="&#x2014;" horiz-adv-x="952" d="M1132 862l-4 -26l-10 4l-102 -58l60 -2l48 18l-6 -24l-78 -72l40 -32l-2 -114l-962 -138l-4 36l92 72l-94 24v16h12l40 14h12l24 18l-44 12l-42 -24l2 32l50 22l-40 26l12 30zM1000 728l-42 12l-74 -42l42 -2l38 14h12zM918 656l-44 10l-72 -40l40 -2l40 14l12 -2z M400 548l-58 14l-102 -54l60 -2l52 20l18 -2z" />
<glyph unicode="&#x2018;" horiz-adv-x="528" d="M718 1482l-72 -516l-42 2l2 4l-24 66l-10 -38l4 -22l-26 12l-48 -8l2 6l-32 90l-14 -52l8 -46l-64 -10l-8 560l86 -22l36 -44l58 34h18l6 -32l-4 -10l14 -22l18 38l-8 22zM574 1426l-16 48l-8 -28l4 -24l-2 -8l10 -16z" />
<glyph unicode="&#x2019;" horiz-adv-x="538" d="M818 1494l-300 -506l-162 2l20 18l4 74l-30 -42l-10 -40l-8 -10h-52l188 510l104 4l16 -44l62 34l46 -4l-12 -44l-12 -18l6 -30l52 56l2 32zM636 1432l-22 -28l-6 -28l-8 -10l4 -16l28 32z" />
<glyph unicode="&#x201c;" horiz-adv-x="966" d="M1158 1502l-74 -508l-160 -4l10 18l-28 72l-10 -42l6 -38l-2 -12h-52l-38 508l100 6l38 -42l46 36l46 -2l6 -44l-4 -18l20 -30l28 58l-12 32zM726 1488l-74 -516h-42l2 4l-24 66l-10 -38l2 -22l-24 12l-48 -8v6l-30 90l-14 -54l8 -46l-64 -8l-6 558l86 -20l36 -44l60 34 h18l6 -32l-4 -10l12 -22l18 40l-8 22zM1024 1384l-20 52l-8 -30l8 -28l-4 -10l10 -16zM582 1430l-16 48l-8 -28l4 -24l-2 -8l10 -16z" />
<glyph unicode="&#x201d;" horiz-adv-x="1030" d="M1278 1500l-300 -510l-162 -2l18 18l6 74l-30 -44l-12 -38l-6 -12h-52l186 508l104 6l18 -42l62 36l46 -2l-12 -44l-12 -18l6 -30l54 58v30zM840 1488l-304 -516h-42l2 4l8 66l-28 -38l-6 -22l-22 12l-50 -8l2 6l10 90l-38 -52l-12 -46l-68 -10l242 560l78 -22l16 -42 l74 34l18 -2l-8 -32l-8 -10l4 -22l36 40v22zM1096 1434l-22 -30l-6 -28l-8 -10l4 -16l28 32zM674 1478l-20 -28l-6 -22l-6 -10l2 -14l24 26z" />
<glyph unicode="&#x2026;" horiz-adv-x="1644" d="M1562 348v-60l-12 2l-102 -56l60 -2l52 20h2l-2 -32l-44 -48l44 -34l-2 -54l-400 -84l4 58h26l40 14l10 -2l26 20l-44 10l-56 -30l20 208zM1050 360l-4 -190l-18 6l-76 -42l44 -2l40 14h12l-2 -50l-402 -84l8 60l42 44l-36 38l4 46l46 16h18l32 26l-60 14l-32 -18l6 52z M508 328l-2 -46h-4l-74 -40l44 -2l22 8l-12 -30l8 -50h-6l-102 -56l60 -2l52 20l10 -66l-402 -84l4 52l50 48l-40 56l2 20l36 14l12 -2l24 20l-44 10l-24 -14l4 74zM1300 166l-34 6l-52 -28l30 -2l28 10h10zM806 200l-32 8l-52 -30l30 -2l28 12l10 -2zM230 146l-32 6 l-54 -28l32 -2l26 10h10z" />
<glyph unicode="&#x202f;" horiz-adv-x="444" />
<glyph unicode="&#x2039;" horiz-adv-x="714" d="M1142 1400l-726 -744l414 -672l-64 -52l-8 34l-90 44l22 -52l38 -30l6 -14l-66 -20l-12 -48l-58 -46l-546 746l80 120l38 -38q-12 54 2 98l-64 -14l4 46l752 832l62 -28l8 -24l-10 -6l-60 -104l58 36l32 44l40 -6l-2 -42l74 14zM956 1382l-44 -18l-40 -70l38 24l24 32 l12 6zM806 1298l-34 -14l-30 -54l30 20l18 24l10 4zM634 -48l-8 42l-62 28l16 -34l26 -20l4 -10z" />
<glyph unicode="&#x203a;" horiz-adv-x="774" d="M970 758l-14 -46l-62 14q0 -40 -40 -98l54 38l30 -120l-864 -746l-38 46l10 48l-58 20l10 14l52 30l42 52l-110 -44l-20 -34l-42 52l700 672l-408 744l106 74l66 -14l20 42l38 6l16 -44l44 -36l-16 104l-12 6l20 24l76 28zM538 1230l-10 54l-26 14l-2 -20l6 -4l10 -24z M436 1294l-10 70l-38 18l-2 -26l8 -6l12 -32zM200 22l-74 -28l-24 -42l28 6l8 10l34 20z" />
<glyph unicode="&#x205f;" horiz-adv-x="554" />
<glyph unicode="&#x2122;" horiz-adv-x="1222" d="M1492 1606q-78 -228 -144 -668q-4 -2 -8 -2t-11 2t-11 2l4 12l-4 20l2 6l-8 12l-14 -26l10 -26l-14 -16l-18 -4l-6 -30l-72 -28q-2 228 12 372q-116 -184 -176 -344l-26 2l-12 -48l-50 -18q-36 70 -98 218q-36 -92 -72 -222q-22 -10 -64 -26q-4 20 -6 48q-14 -12 -44 -32 q-2 -20 -6 -44q-22 4 -64 8q64 344 192 646q-58 -12 -104 -24q-60 -178 -110 -410q-4 -18 -14 -54q-16 -48 -24 -132q-14 -4 -34 -12q-10 12 -24 36l-26 -30v22l8 10l-8 18l-26 -32l6 -40l-2 -2l-12 12l-26 -14q34 340 70 546l-146 -68l20 56q10 10 28 26q-8 6 -24 16 q4 28 22 74l-6 28q294 128 498 186l-18 -36q20 2 40 8l-12 -76l-26 2l-54 -38l34 2l30 16h10l-8 -24l-18 -6q4 -12 10 -20q-6 -14 -10 -22l8 4l24 38l58 6l-14 -20l6 -56l16 32l4 30l4 8l-2 8q58 4 100 8l-22 -46l-2 -14q12 2 36 8q-22 -38 -46 -84q-22 -170 6 -264 q36 166 158 412q18 -2 44 -10l-14 -10l-10 -44l20 20l8 22l6 4v6l30 -8q4 20 14 60q60 12 82 12q8 0 13 -11t15 -11t56 31t66 37zM1274 1008l-2 20l2 8l-10 10l-12 -26l14 -38zM874 1378v16l-24 -18l-10 -44l20 20l8 22zM764 1480l-18 4l-22 -18l14 2l14 4h4zM748 1512 l-26 2l-38 -26l24 2l20 10h8zM814 1332v10l-16 -10l-6 -30l14 14l4 12zM498 938l-4 14l-18 -24l4 -44l12 26l2 22zM450 896l-6 10l-14 -18l6 -32l8 18l2 16z" />
<glyph unicode="&#xe000;" horiz-adv-x="1450" d="M0 1450h1450v-1450h-1450v1450z" />
<glyph unicode="&#xfb01;" horiz-adv-x="1330" d="M1568 1294q-176 -558 -270 -994q-4 -22 -20 -66t-22 -66q-8 -58 -22 -172l-60 -24q-16 22 -42 68l-8 -10l2 28l6 12l-6 24l-30 -42l4 -52q-20 -20 -54 -62l-20 24l-44 -30q82 810 192 1326q60 24 94 36h4l10 -102l30 60l6 54l4 8l36 14l14 -62l68 66q58 20 90 32 q-12 -54 -20 -84q36 8 58 14zM1346 1144l-10 24l-28 -42l4 -70l24 42l4 36zM1276 1038l-4 14l-18 -24l6 -42q12 18 14 46zM1244 1478q-12 -24 -24 -71t-25 -70l-41 -73q30 4 64 12q-16 -34 -38 -96q-132 -28 -240 -56q-84 -30 -250 -74q-46 -138 -64 -208q178 48 392 72 l-44 -92l-28 -16l-46 6l-94 -66l60 2l52 26h16l6 4l30 -2l-42 -90q-216 -52 -372 -104q-8 -30 -44 -198q-8 -46 -34 -136q-8 -22 -19 -65t-27 -167q-20 -8 -56 -20q-18 20 -44 64l-84 -96l-22 22l-44 -28q14 166 52 498q-48 -22 -146 -62l62 96l22 2l34 16h10l20 20l-40 4 l-34 -22l-16 42q20 16 54 48q-10 12 -18 28q26 36 33 42t51 22q6 52 32 204q-48 -22 -88 -38q-2 28 2 60l40 70l18 10h18l28 30l-64 6l-16 -10q-18 22 -24 38q10 16 17 53t19 55h-34l2 12l150 78q122 62 508 170q18 -16 28 -24q170 40 342 72zM1100 1300l-40 6l-62 -44l38 2 l34 18h10zM742 790l-42 4l-60 -42l40 2l32 16h12z" />
<glyph unicode="&#xfb02;" horiz-adv-x="1470" d="M1750 442l-36 -76l-22 4l-68 -48l44 2l36 18h2l-18 -50q-8 -2 -10 -8q2 10 4 -16l-8 -4q0 -8 -13 -10t-9 -6l-18 -40q-318 -106 -688 -310q-2 20 -4 68l-8 -18l10 76l22 2l44 22h14l22 24l-52 8l-48 -34q126 814 232 1222q10 2 18 2q10 0 28 -6t30 -6q10 0 24 4l2 2 l-12 -16l12 -70l20 42l2 36l6 12l-4 10l44 36q32 24 46 24q16 0 54 -16l-22 -32l14 -94l28 56l2 48l8 16l-2 6q24 8 62 43t62 43l-174 -544q-94 -312 -148 -546q148 66 368 138l-2 -4q0 -4 8 -4q12 0 32 6l-86 -60l60 4l48 24h18l18 18zM1348 1122l-12 22l-28 -40l10 -70 l22 40l2 36zM1564 332l-36 4l-52 -38l34 2l28 14h10zM972 24h-2l-4 -12zM1244 1478q-12 -24 -24 -71t-25 -70l-41 -73q30 4 64 12q-16 -34 -38 -96q-132 -28 -240 -56q-84 -30 -250 -74q-46 -138 -64 -208q178 48 392 72l-44 -92l-28 -16l-46 6l-94 -66l60 2l52 26h16l6 4 l30 -2l-42 -90q-216 -52 -372 -104q-8 -30 -44 -198q-8 -46 -34 -136q-8 -22 -19 -65t-27 -167q-20 -8 -56 -20q-18 20 -44 64l-84 -96l-22 22l-44 -28q14 166 52 498q-48 -22 -146 -62l62 96l22 2l34 16h10l20 20l-40 4l-34 -22l-16 42q20 16 54 48q-10 12 -18 28 q26 36 33 42t51 22q6 52 32 204q-48 -22 -88 -38q-2 28 2 60l40 70l18 10h18l28 30l-64 6l-16 -10q-18 22 -24 38q10 16 17 53t19 55h-34l2 12l150 78q122 62 508 170q18 -16 28 -24q170 40 342 72zM1100 1300l-40 6l-62 -44l38 2l34 18h10zM742 790l-42 4l-60 -42l40 2 l32 16h12z" />
<glyph unicode="&#xfb03;" horiz-adv-x="2180" d="M2418 1294q-176 -558 -270 -994q-4 -22 -20 -66t-22 -66q-8 -58 -22 -172l-60 -24q-16 22 -42 68l-8 -10l2 28l6 12l-6 24l-30 -42l4 -52q-20 -20 -54 -62l-20 24l-44 -30q82 810 192 1326q60 24 94 36h4l10 -102l30 60l6 54l4 8l36 14l14 -62l68 66q58 20 90 32 q-12 -54 -20 -84q36 8 58 14zM2196 1144l-10 24l-28 -42l4 -70l24 42l4 36zM2126 1038l-4 14l-18 -24l6 -42q12 18 14 46zM2094 1478q-12 -24 -24 -71t-25 -70l-41 -73q30 4 64 12q-16 -34 -38 -96q-132 -28 -240 -56q-84 -30 -250 -74q-46 -138 -64 -208q178 48 392 72 l-44 -92l-28 -16l-46 6l-94 -66l60 2l52 26h16l6 4l30 -2l-42 -90q-216 -52 -372 -104q-8 -30 -44 -198q-8 -46 -34 -136q-8 -22 -19 -65t-27 -167q-20 -8 -56 -20q-18 20 -44 64l-84 -96l-22 22l-44 -28q14 166 52 498q-48 -22 -146 -62l62 96l22 2l34 16h10l20 20l-40 4 l-34 -22l-16 42q20 16 54 48q-10 12 -18 28q26 36 33 42t51 22q6 52 32 204q-48 -22 -88 -38q-2 28 2 60l40 70l18 10h18l28 30l-64 6l-16 -10q-18 22 -24 38q10 16 17 53t19 55h-34l2 12l150 78q122 62 508 170q18 -16 28 -24q170 40 342 72zM1950 1300l-40 6l-62 -44l38 2 l34 18h10zM1592 790l-42 4l-60 -42l40 2l32 16h12zM1244 1478q-12 -24 -24 -71t-25 -70l-41 -73q30 4 64 12q-16 -34 -38 -96q-132 -28 -240 -56q-84 -30 -250 -74q-46 -138 -64 -208q178 48 392 72l-44 -92l-28 -16l-46 6l-94 -66l60 2l52 26h16l6 4l30 -2l-42 -90 q-216 -52 -372 -104q-8 -30 -44 -198q-8 -46 -34 -136q-8 -22 -19 -65t-27 -167q-20 -8 -56 -20q-18 20 -44 64l-84 -96l-22 22l-44 -28q14 166 52 498q-48 -22 -146 -62l62 96l22 2l34 16h10l20 20l-40 4l-34 -22l-16 42q20 16 54 48q-10 12 -18 28q26 36 33 42t51 22 q6 52 32 204q-48 -22 -88 -38q-2 28 2 60l40 70l18 10h18l28 30l-64 6l-16 -10q-18 22 -24 38q10 16 17 53t19 55h-34l2 12l150 78q122 62 508 170q18 -16 28 -24q170 40 342 72zM1100 1300l-40 6l-62 -44l38 2l34 18h10zM742 790l-42 4l-60 -42l40 2l32 16h12z" />
<glyph unicode="&#xfb04;" horiz-adv-x="2320" d="M2600 442l-36 -76l-22 4l-68 -48l44 2l36 18h2l-18 -50q-8 -2 -10 -8q2 10 4 -16l-8 -4q0 -8 -13 -10t-9 -6l-18 -40q-318 -106 -688 -310q-2 20 -4 68l-8 -18l10 76l22 2l44 22h14l22 24l-52 8l-48 -34q126 814 232 1222q10 2 18 2q10 0 28 -6t30 -6q10 0 24 4l2 2 l-12 -16l12 -70l20 42l2 36l6 12l-4 10l44 36q32 24 46 24q16 0 54 -16l-22 -32l14 -94l28 56l2 48l8 16l-2 6q24 8 62 43t62 43l-174 -544q-94 -312 -148 -546q148 66 368 138l-2 -4q0 -4 8 -4q12 0 32 6l-86 -60l60 4l48 24h18l18 18zM2198 1122l-12 22l-28 -40l10 -70 l22 40l2 36zM2414 332l-36 4l-52 -38l34 2l28 14h10zM1822 24h-2l-4 -12zM2094 1478q-12 -24 -24 -71t-25 -70l-41 -73q30 4 64 12q-16 -34 -38 -96q-132 -28 -240 -56q-84 -30 -250 -74q-46 -138 -64 -208q178 48 392 72l-44 -92l-28 -16l-46 6l-94 -66l60 2l52 26h16l6 4 l30 -2l-42 -90q-216 -52 -372 -104q-8 -30 -44 -198q-8 -46 -34 -136q-8 -22 -19 -65t-27 -167q-20 -8 -56 -20q-18 20 -44 64l-84 -96l-22 22l-44 -28q14 166 52 498q-48 -22 -146 -62l62 96l22 2l34 16h10l20 20l-40 4l-34 -22l-16 42q20 16 54 48q-10 12 -18 28 q26 36 33 42t51 22q6 52 32 204q-48 -22 -88 -38q-2 28 2 60l40 70l18 10h18l28 30l-64 6l-16 -10q-18 22 -24 38q10 16 17 53t19 55h-34l2 12l150 78q122 62 508 170q18 -16 28 -24q170 40 342 72zM1950 1300l-40 6l-62 -44l38 2l34 18h10zM1592 790l-42 4l-60 -42l40 2 l32 16h12zM1244 1478q-12 -24 -24 -71t-25 -70l-41 -73q30 4 64 12q-16 -34 -38 -96q-132 -28 -240 -56q-84 -30 -250 -74q-46 -138 -64 -208q178 48 392 72l-44 -92l-28 -16l-46 6l-94 -66l60 2l52 26h16l6 4l30 -2l-42 -90q-216 -52 -372 -104q-8 -30 -44 -198 q-8 -46 -34 -136q-8 -22 -19 -65t-27 -167q-20 -8 -56 -20q-18 20 -44 64l-84 -96l-22 22l-44 -28q14 166 52 498q-48 -22 -146 -62l62 96l22 2l34 16h10l20 20l-40 4l-34 -22l-16 42q20 16 54 48q-10 12 -18 28q26 36 33 42t51 22q6 52 32 204q-48 -22 -88 -38q-2 28 2 60 l40 70l18 10h18l28 30l-64 6l-16 -10q-18 22 -24 38q10 16 17 53t19 55h-34l2 12l150 78q122 62 508 170q18 -16 28 -24q170 40 342 72zM1100 1300l-40 6l-62 -44l38 2l34 18h10zM742 790l-42 4l-60 -42l40 2l32 16h12z" />
</font>
</defs>
</svg>
